<?xml version="1.0" encoding="iso-8859-1"?>
<!-- Generator: Adobe Illustrator 17.1.0, SVG Export Plug-In . SVG Version: 6.00 Build 0)  -->
<!DOCTYPE svg PUBLIC "-//W3C//DTD SVG 1.1//EN" "http://www.w3.org/Graphics/SVG/1.1/DTD/svg11.dtd">
<svg version="1.1" id="Capa_1" xmlns="http://www.w3.org/2000/svg" xmlns:xlink="http://www.w3.org/1999/xlink" x="0px" y="0px"
	 viewBox="0 0 399.02 399.02" style="enable-background:new 0 0 399.02 399.02;" xml:space="preserve">
<g>
	<path d="M13.076,135.976c0.004,0.166,0.01,0.332,0.025,0.499c0.009,0.098,0.023,0.194,0.036,0.292
		c0.02,0.144,0.038,0.288,0.066,0.431c0.023,0.12,0.052,0.238,0.081,0.356c0.028,0.116,0.055,0.232,0.089,0.348
		c0.042,0.143,0.092,0.281,0.142,0.42c0.032,0.09,0.063,0.18,0.099,0.269c0.064,0.159,0.137,0.313,0.211,0.466
		c0.026,0.055,0.047,0.111,0.075,0.165c0.007,0.013,0.016,0.024,0.023,0.037c0.148,0.283,0.313,0.555,0.496,0.815
		c0.044,0.063,0.092,0.123,0.138,0.184c0.143,0.191,0.293,0.375,0.453,0.552c0.061,0.068,0.121,0.138,0.185,0.203
		c0.203,0.208,0.416,0.406,0.642,0.589c0.059,0.048,0.121,0.09,0.182,0.136c0.188,0.144,0.382,0.278,0.583,0.403
		c0.071,0.045,0.144,0.09,0.216,0.132c0.525,0.304,1.089,0.546,1.684,0.716c0.066,0.019,0.131,0.034,0.195,0.05
		c0.233,0.06,0.471,0.108,0.712,0.146c0.083,0.013,0.164,0.028,0.247,0.038c0.279,0.034,0.563,0.056,0.851,0.058
		c0.022,0.001,0.045,0.005,0.067,0.005c0.008,0,0.017-0.001,0.025-0.001h7.221v17.745c0,4.142,3.357,7.5,7.5,7.5h9.326v132h-9.326
		c-4.143,0-7.5,3.357-7.5,7.5c0,4.142,3.357,7.5,7.5,7.5h16.826h28.311h59.89h28.311h59.889h28.311h59.889h28.311h18.646
		c4.143,0,7.5-3.358,7.5-7.5c0-4.143-3.357-7.5-7.5-7.5h-11.146v-132h12.954c0.039,0,0.078-0.006,0.117-0.006
		c0.039,0.001,0.078,0.006,0.117,0.006c4.143,0,7.5-3.358,7.5-7.5v-17.745h6.895c0.04,0,0.079-0.005,0.119-0.006
		c0.043,0.001,0.086,0.008,0.128,0.008c2.714,0,5.334-1.479,6.667-4.056c1.903-3.679,0.464-8.204-3.215-10.107L204.912,36.568
		c-1.324-0.685-2.756-0.93-4.137-0.801c-1.377-0.128-2.804,0.116-4.122,0.796L17.13,129.119c-0.016,0.008-0.029,0.018-0.045,0.026
		c-0.153,0.081-0.302,0.17-0.448,0.261c-0.069,0.043-0.142,0.082-0.209,0.127c-0.116,0.077-0.228,0.162-0.34,0.246
		c-0.09,0.067-0.183,0.131-0.269,0.201c-0.073,0.06-0.141,0.126-0.212,0.188c-0.113,0.101-0.229,0.199-0.336,0.306
		c-0.039,0.039-0.074,0.081-0.112,0.122c-0.13,0.135-0.258,0.27-0.376,0.413c-0.036,0.044-0.066,0.091-0.102,0.136
		c-0.113,0.143-0.225,0.286-0.326,0.435c-0.087,0.128-0.163,0.263-0.242,0.396c-0.041,0.07-0.088,0.138-0.127,0.21
		c-0.112,0.204-0.214,0.415-0.307,0.63c-0.002,0.004-0.004,0.008-0.006,0.012c-0.086,0.201-0.161,0.407-0.229,0.616
		c-0.007,0.02-0.017,0.041-0.023,0.062c-0.052,0.163-0.093,0.33-0.133,0.497c-0.019,0.073-0.041,0.145-0.057,0.218
		c-0.025,0.122-0.042,0.247-0.063,0.372c-0.02,0.124-0.043,0.249-0.057,0.374c-0.01,0.091-0.013,0.184-0.02,0.276
		c-0.012,0.162-0.023,0.323-0.024,0.486c0,0.019-0.003,0.038-0.003,0.057C13.066,135.85,13.074,135.912,13.076,135.976z
		 M200.773,51.315l148.796,76.97H51.479L200.773,51.315z M132.845,168.53v132h-44.89v-132H132.845z M221.044,168.53v132h-44.889
		v-132H221.044z M59.645,300.53V169.619h13.311V300.53H59.645z M147.845,300.53V169.619h13.311V300.53H147.845z M236.044,300.53
		V169.619h13.311V300.53H236.044z M324.244,300.53V169.619h13.311V300.53H324.244z M309.244,300.53h-44.889v-132h44.889V300.53z
		 M358.244,153.53H42.818v-10.245h315.426V153.53z"/>
	<path d="M21.655,324.407c-4.143,0-7.5,3.358-7.5,7.5c0,4.142,3.357,7.5,7.5,7.5h355.709c4.143,0,7.5-3.358,7.5-7.5
		c0-4.142-3.357-7.5-7.5-7.5H21.655z"/>
	<path d="M391.52,348.285H7.5c-4.142,0-7.5,3.358-7.5,7.5c0,4.142,3.358,7.5,7.5,7.5h384.02c4.143,0,7.5-3.358,7.5-7.5
		C399.02,351.643,395.662,348.285,391.52,348.285z"/>
</g>
<g>
</g>
<g>
</g>
<g>
</g>
<g>
</g>
<g>
</g>
<g>
</g>
<g>
</g>
<g>
</g>
<g>
</g>
<g>
</g>
<g>
</g>
<g>
</g>
<g>
</g>
<g>
</g>
<g>
</g>
</svg>
