<?xml version="1.0" encoding="utf-8"?>
<!-- Generator: Adobe Illustrator 24.1.1, SVG Export Plug-In . SVG Version: 6.00 Build 0)  -->
<svg version="1.1" id="Capa_1" xmlns="http://www.w3.org/2000/svg" xmlns:xlink="http://www.w3.org/1999/xlink" x="0px" y="0px"
	 viewBox="0 0 512 512" style="enable-background:new 0 0 512 512;" xml:space="preserve">
<style type="text/css">
	.st0{fill:none;stroke:#F9F7F7;stroke-width:0.25;stroke-miterlimit:10;}
</style>
<path class="st0" d="M511.5,91.2c-0.1-0.4-0.3-0.8-0.4-1.2c-0.5-0.9-1.1-1.7-1.8-2.5c-0.5-0.4-1-0.8-1.6-1c-0.4-0.2-0.7-0.4-1.1-0.6
	c-0.1,0-0.2-0.1-0.3-0.1L264.4,1.4c-5.4-1.9-11.3-1.9-16.7,0L5.7,85.7c-0.1,0-0.2,0.1-0.3,0.1c-0.4,0.2-0.8,0.4-1.1,0.6
	c-0.6,0.3-1.1,0.6-1.6,1c-0.3,0.3-0.6,0.6-0.8,0.9c-0.4,0.5-0.7,1-1,1.5c-0.4,1-0.7,2-0.8,3.1c0,0.2-0.1,0.4-0.1,0.7v34.1
	c0,4.7,3.8,8.5,8.5,8.5h8.5v17.1c0,7.2,3.1,14.1,8.5,18.9v23.7c0,10.4,6.4,19.8,16.1,23.7c-9.5,62.9-9.6,126.8-0.2,189.7
	c-13.6,0.6-24.3,11.8-24.4,25.5v18.6C6.9,457.4,0,467,0,477.8v25.6c0,4.7,3.8,8.5,8.5,8.5h494.9c4.7,0,8.5-3.8,8.5-8.5v-25.6
	c0-10.8-6.9-20.4-17.1-24v-18.6c0-13.6-10.8-24.8-24.4-25.5c9.3-62.9,9.2-126.9-0.2-189.7c9.7-3.9,16.1-13.3,16.1-23.7v-23.7
	c5.4-4.8,8.5-11.7,8.5-18.9v-17.1h8.5c4.7,0,8.5-3.8,8.5-8.5V93.8c0-0.2-0.1-0.4-0.1-0.7C511.8,92.5,511.7,91.8,511.5,91.2z
	 M253.2,17.5c1.8-0.6,3.7-0.6,5.5,0l194.3,67.8H58.9L253.2,17.5z M145.1,179.1v17.1c0,10.4,6.4,19.8,16.1,23.7
	c-9.5,62.8-9.6,126.7-0.3,189.6h-48.7c9.3-62.9,9.2-126.8-0.3-189.6c9.7-3.9,16.1-13.3,16.1-23.7v-17.1H145.1z M264.5,179.1v17.1
	c0,10.4,6.4,19.8,16.1,23.7c-9.5,62.8-9.6,126.7-0.3,189.6h-48.7c9.3-62.9,9.2-126.8-0.3-189.6c9.7-3.9,16.1-13.3,16.1-23.7v-17.1
	H264.5z M384,179.1v17.1c0,10.4,6.4,19.8,16.1,23.7c-9.5,62.8-9.6,126.7-0.3,189.6h-48.7c9.3-62.9,9.2-126.8-0.3-189.6
	c9.7-3.9,16.1-13.3,16.1-23.7v-17.1H384z M453.4,409.5H417c-9.4-62.2-9.4-125.5,0-187.7h36.4C462.8,284,462.8,347.3,453.4,409.5z
	 M297.6,221.8h36.4c9.4,62.2,9.4,125.5,0,187.7h-36.4C288.2,347.3,288.2,284,297.6,221.8z M349.9,196.2c0,4.7-3.8,8.5-8.5,8.5h-51.2
	c-4.7,0-8.5-3.8-8.5-8.5v-17.1h68.3V196.2z M178.1,221.8h36.4c9.4,62.2,9.4,125.5,0,187.7h-36.4C168.7,347.3,168.7,284,178.1,221.8z
	 M230.4,196.2c0,4.7-3.8,8.5-8.5,8.5h-51.2c-4.7,0-8.5-3.8-8.5-8.5v-17.1h68.3V196.2z M58.6,221.8H95c9.4,62.2,9.4,125.5,0,187.7
	H58.6C49.2,347.3,49.2,284,58.6,221.8z M110.9,196.2c0,4.7-3.8,8.5-8.5,8.5H51.2c-4.7,0-8.5-3.8-8.5-8.5v-17.1h68.3V196.2z
	 M494.9,494.9H17.1v-17.1c0-4.7,3.8-8.5,8.5-8.5h460.8c4.7,0,8.5,3.8,8.5,8.5V494.9z M477.9,435.1v17.1H34.1v-17.1
	c0-4.7,3.8-8.5,8.5-8.5h426.7C474,426.6,477.9,430.4,477.9,435.1z M469.3,196.2c0,4.7-3.8,8.5-8.5,8.5h-51.2c-4.7,0-8.5-3.8-8.5-8.5
	v-17.1h68.3V196.2z M477.9,153.5c0,4.7-3.8,8.5-8.5,8.5H42.7c-4.7,0-8.5-3.8-8.5-8.5v-17.1h443.7V153.5z M494.9,119.4H17.1v-17.1
	h477.9V119.4z"/>
</svg>
