<?xml version="1.0" encoding="utf-8"?>
<!-- Generator: Adobe Illustrator 24.1.1, SVG Export Plug-In . SVG Version: 6.00 Build 0)  -->
<svg version="1.1" id="Layer_1" xmlns="http://www.w3.org/2000/svg" xmlns:xlink="http://www.w3.org/1999/xlink" x="0px" y="0px"
	 viewBox="0 0 286.6 286.6" style="enable-background:new 0 0 286.6 286.6;" xml:space="preserve">
<style type="text/css">
	.st0{fill:none;stroke:#440C0C;stroke-width:3;stroke-miterlimit:10;}
</style>
<g>
	<path class="st0" d="M272.5,258.9v-18.5h-4.8l-4.4-110.3l3.6-14.3h5.6V88.1h9.2v-26L143.3,0L4.8,62.1v26.1H14v27.7h5.6l3.6,14.3
		l-4.4,110.3H14V259H0.2v27.7h286.2V259h-13.9L272.5,258.9L272.5,258.9z M14.1,78.9V68l129.2-57.9L272.5,68v10.9H14.1z M23.3,249.7
		h23.1h9.2h27.7h9.2h27.7h9.2h27.7h9.2H194h9.2H231h9.2h23.1v9.2h-240C23.3,258.9,23.3,249.7,23.3,249.7z M23.3,106.6V88.1h240v18.5
		H23.3z M52,247.1V106.8h18v140.4H52z M93,248.5V106.6h19.2v141.9H93z M132,248.5V106.8h19.6v141.7H132z M216,248.5V106.8h18v141.7
		H216z M9.5,277.4v-9.2h4.6h258.5h4.6v9.2H9.5z M173.6,247.1V106.8H192v140.4H173.6z"/>
	<path class="st0" d="M38.5,69.7h209.7L143.3,23.1L38.5,69.7z M82,60.4l61.3-27.3l61.3,27.3H82z"/>
</g>
</svg>
