<?xml version="1.0" encoding="utf-8"?>
<!-- Generator: Adobe Illustrator 24.1.1, SVG Export Plug-In . SVG Version: 6.00 Build 0)  -->
<svg version="1.1"
	 id="svg2178" xmlns:cc="http://creativecommons.org/ns#" xmlns:dc="http://purl.org/dc/elements/1.1/" xmlns:inkscape="http://www.inkscape.org/namespaces/inkscape" xmlns:rdf="http://www.w3.org/1999/02/22-rdf-syntax-ns#" xmlns:sodipodi="http://sodipodi.sourceforge.net/DTD/sodipodi-0.dtd" xmlns:svg="http://www.w3.org/2000/svg"
	 xmlns="http://www.w3.org/2000/svg" xmlns:xlink="http://www.w3.org/1999/xlink" x="0px" y="0px" viewBox="0 0 841.9 595.3"
	 style="enable-background:new 0 0 841.9 595.3;" xml:space="preserve">
<style type="text/css">
	.st0{fill-rule:evenodd;clip-rule:evenodd;fill:#F7C8A4;stroke:#7D7D7D;stroke-miterlimit:11.3386;}
	.st1{fill-rule:evenodd;clip-rule:evenodd;fill:#F9F9F9;stroke:#7D7D7D;stroke-miterlimit:10;}
	.st2{fill:#F9F9F9;stroke:#7D7D7D;stroke-miterlimit:6.8533;}
	.st3{fill:#F9F9F9;stroke:#7D7D7D;stroke-miterlimit:10.6192;}
	.st4{fill:#F9F9F9;stroke:#7D7D7D;stroke-miterlimit:10.3243;}
	.st5{fill:#F9F9F9;stroke:#7D7D7D;stroke-miterlimit:10.0294;}
	.st6{fill:#F9F9F9;stroke:#7D7D7D;stroke-miterlimit:9.7345;}
	.st7{fill:#F9F9F9;stroke:#7D7D7D;stroke-miterlimit:9.4622;}
	.st8{fill:#F9F9F9;stroke:#7D7D7D;stroke-miterlimit:9.19;}
	.st9{fill:#F9F9F9;stroke:#7D7D7D;stroke-miterlimit:8.9178;}
	.st10{fill:#F9F9F9;stroke:#7D7D7D;stroke-miterlimit:8.6228;}
	.st11{fill:#F9F9F9;stroke:#7D7D7D;stroke-miterlimit:8.3506;}
	.st12{fill:#F9F9F9;stroke:#7D7D7D;stroke-miterlimit:8.0784;}
	.st13{fill:#F9F9F9;stroke:#7D7D7D;stroke-miterlimit:7.8061;}
	.st14{fill:#F9F9F9;stroke:#7D7D7D;stroke-miterlimit:7.5112;}
	.st15{fill:#F9F9F9;stroke:#7D7D7D;stroke-miterlimit:7.1936;}
	.st16{fill:#F9F9F9;stroke:#7D7D7D;stroke-miterlimit:10;}
	.st17{fill:#FFFFFF;stroke:#7D7D7D;stroke-width:0.5;stroke-miterlimit:5.1789;}
	.st18{fill:#F9F9F9;stroke:#7D7D7D;}
	.st19{fill-rule:evenodd;clip-rule:evenodd;fill:#F9F9F9;fill-opacity:0.6299;stroke:#7D7D7D;stroke-miterlimit:10;}
	.st20{fill-rule:evenodd;clip-rule:evenodd;fill:#F7C9A6;stroke:#7D7D7D;stroke-miterlimit:10;}
	.st21{fill-rule:evenodd;clip-rule:evenodd;fill:#F7C9A6;stroke:#7D7D7D;stroke-miterlimit:11.3386;}
	.st22{fill:#F7C9A6;stroke:#7D7D7D;stroke-miterlimit:6.513;}
	.st23{fill:#FFFFFF;stroke:#7D7D7D;stroke-miterlimit:5.1789;}
	.st24{fill:#F9F9F9;stroke:#7D7D7D;stroke-miterlimit:11.3386;}
	.st25{fill:none;stroke:#020201;stroke-width:1.5;stroke-miterlimit:11.3386;}
	.st26{fill:#020201;}
</style>
<rect x="370" y="418" class="st0" width="115.2" height="58"/>
<sodipodi:namedview  bordercolor="#666666" borderopacity="1.0" gridtolerance="10.0" guidetolerance="10.0" id="namedview3041" inkscape:current-layer="svg2178" inkscape:cx="576.40912" inkscape:cy="372.14452" inkscape:grid-bbox="false" inkscape:guide-bbox="true" inkscape:guide-points="true" inkscape:object-bbox="true" inkscape:object-nodes="true" inkscape:object-paths="true" inkscape:object-points="true" inkscape:pageopacity="0.0" inkscape:pageshadow="2" inkscape:window-height="724" inkscape:window-maximized="0" inkscape:window-width="1264" inkscape:window-x="0" inkscape:window-y="25" inkscape:zoom="0.73742632" objecttolerance="4.1" pagecolor="#ffffff" showgrid="false" showguides="true">
	
		<inkscape:grid  color="#0000ff" empcolor="#0000ff" empopacity="0.4" empspacing="0" id="GridFromPre046Settings" opacity="0.2" originx="0px" originy="0px" spacingx="1px" spacingy="1px" type="xygrid">
		</inkscape:grid>
</sodipodi:namedview>
<defs>
	
		<inkscape:perspective  id="perspective4114" inkscape:persp3d-origin="526.18109 : 248.03149 : 1" inkscape:vp_x="0 : 372.04724 : 1" inkscape:vp_y="0 : 1000 : 0" inkscape:vp_z="1052.3622 : 372.04724 : 1" sodipodi:type="inkscape:persp3d">
		</inkscape:perspective>
	
		<sodipodi:namedview  bordercolor="#666666" borderopacity="1.0" gridtolerance="10000" guidetolerance="10" height="744.09448px" id="base" inkscape:current-layer="layer1" inkscape:cx="537.65055" inkscape:cy="382.08933" inkscape:document-units="px" inkscape:pageopacity="0.0" inkscape:pageshadow="2" inkscape:window-height="974" inkscape:window-width="1280" inkscape:window-x="-8" inkscape:window-y="-8" inkscape:zoom="1.3851835" objecttolerance="10" pagecolor="#ffffff" width="1052.3622px">
		</sodipodi:namedview>
	
		<inkscape:perspective  id="perspective3443" inkscape:persp3d-origin="0.5 : 0.33333333 : 1" inkscape:vp_x="0 : 0.5 : 1" inkscape:vp_y="0 : 1000 : 0" inkscape:vp_z="1 : 0.5 : 1" sodipodi:type="inkscape:persp3d">
		</inkscape:perspective>
	
		<inkscape:perspective  id="perspective4232" inkscape:persp3d-origin="0.5 : 0.33333333 : 1" inkscape:vp_x="0 : 0.5 : 1" inkscape:vp_y="0 : 1000 : 0" inkscape:vp_z="1 : 0.5 : 1" sodipodi:type="inkscape:persp3d">
		</inkscape:perspective>
</defs>
<path id="path13391" sodipodi:nodetypes="ccccccccc" class="st1" d="M600.8,177.7l-3.5,3.8l15.1,17.5l11.3,15.7l6.3,9.9l4.8-2.4
	L623,204.4l-11.9-15.5L600.8,177.7z"/>
<path id="path13393" sodipodi:nodetypes="ccccccccccc" class="st1" d="M593.9,185l-3.5,3.1l8.1,8.6l7.2,9.1l7.8,10.2l8.2,13.3
	l4.1-2.4l-5.7-10.1l-10.5-14.1l-8.4-10.3L593.9,185z"/>
<path id="path7585" sodipodi:cx="120.2316" sodipodi:cy="126.20222" sodipodi:end="6.547831" sodipodi:open="true" sodipodi:rx="63.119129" sodipodi:ry="63.119129" sodipodi:start="2.8766683" sodipodi:type="arc" class="st2" d="
	M318.8,376.5c-15.6-57.6,18.4-117,76.1-132.7s117,18.4,132.7,76.1c5,18.5,5,38.1,0,56.6"/>
<g id="g10401" transform="translate(-296.163, -7.46962)">
	
		<path id="path7543" sodipodi:cx="120.2316" sodipodi:cy="126.20222" sodipodi:end="6.5512415" sodipodi:open="true" sodipodi:rx="63.119129" sodipodi:ry="63.119129" sodipodi:start="2.8748268" sodipodi:type="arc" class="st3" d="
		M557.6,399.8c-24.4-89.3,28.2-181.4,117.5-205.8c89.3-24.4,181.4,28.2,205.8,117.5c7.9,29,7.9,59.6-0.1,88.6"/>
	
		<path id="path7561" sodipodi:cx="120.2316" sodipodi:cy="126.20222" sodipodi:end="6.5505064" sodipodi:open="true" sodipodi:rx="63.119129" sodipodi:ry="63.119129" sodipodi:start="2.8751054" sodipodi:type="arc" class="st4" d="
		M562.1,398.5c-23.7-86.8,27.5-176.4,114.3-200.1s176.4,27.5,200.1,114.3c7.7,28.1,7.7,57.8,0,85.9"/>
	
		<path id="path7563" sodipodi:cx="120.2316" sodipodi:cy="126.20222" sodipodi:end="6.5490108" sodipodi:open="true" sodipodi:rx="63.119129" sodipodi:ry="63.119129" sodipodi:start="2.8737161" sodipodi:type="arc" class="st5" d="
		M566.7,397.5c-23.1-84.3,26.4-171.4,110.7-194.5s171.4,26.4,194.5,110.7c7.5,27.3,7.5,56.1,0.1,83.5"/>
	
		<path id="path7565" sodipodi:cx="120.2316" sodipodi:cy="126.20222" sodipodi:end="6.549532" sodipodi:open="true" sodipodi:rx="63.119129" sodipodi:ry="63.119129" sodipodi:start="2.874172" sodipodi:type="arc" class="st6" d="
		M571.1,396.2c-22.4-81.8,25.7-166.3,107.6-188.7S845,233.2,867.4,315c7.3,26.5,7.3,54.5,0,81"/>
	
		<path id="path7567" sodipodi:cx="120.2316" sodipodi:cy="126.20222" sodipodi:end="6.5505074" sodipodi:open="true" sodipodi:rx="63.119129" sodipodi:ry="63.119129" sodipodi:start="2.8761341" sodipodi:type="arc" class="st7" d="
		M575.2,394.8c-21.6-79.6,25.3-161.6,104.9-183.3s161.6,25.3,183.3,104.9c7,25.7,7,52.9-0.1,78.6"/>
	
		<path id="path7569" sodipodi:cx="120.2316" sodipodi:cy="126.20222" sodipodi:end="6.5496599" sodipodi:open="true" sodipodi:rx="63.119129" sodipodi:ry="63.119129" sodipodi:start="2.8747901" sodipodi:type="arc" class="st8" d="
		M579.4,393.9c-21.1-77.3,24.4-157,101.7-178.1s157,24.4,178.1,101.7c6.8,25,6.8,51.4,0,76.4"/>
	
		<path id="path7571" sodipodi:cx="120.2316" sodipodi:cy="126.20222" sodipodi:end="6.5518108" sodipodi:open="true" sodipodi:rx="63.119129" sodipodi:ry="63.119129" sodipodi:start="2.8758883" sodipodi:type="arc" class="st9" d="
		M583.5,392.6c-20.4-75,23.8-152.3,98.8-172.7s152.3,23.8,172.7,98.8c6.6,24.3,6.6,50-0.1,74.3"/>
	
		<path id="path7573" sodipodi:cx="120.2316" sodipodi:cy="126.20222" sodipodi:end="6.5498715" sodipodi:open="true" sodipodi:rx="63.119129" sodipodi:ry="63.119129" sodipodi:start="2.8753718" sodipodi:type="arc" class="st10" d="
		M588,391.4c-19.8-72.5,23-147.3,95.5-167.1s147.3,23,167.1,95.5c6.4,23.5,6.4,48.2,0,71.7"/>
	
		<path id="path7575" sodipodi:cx="120.2316" sodipodi:cy="126.20222" sodipodi:end="6.5487373" sodipodi:open="true" sodipodi:rx="63.119129" sodipodi:ry="63.119129" sodipodi:start="2.8757566" sodipodi:type="arc" class="st11" d="
		M592.1,390.3C573,320,614.5,247.6,684.7,228.5s142.6,22.3,161.8,92.5c6.2,22.7,6.2,46.5,0,69.2"/>
	
		<path id="path7577" sodipodi:cx="120.2316" sodipodi:cy="126.20222" sodipodi:end="6.5505099" sodipodi:open="true" sodipodi:rx="63.119129" sodipodi:ry="63.119129" sodipodi:start="2.8747165" sodipodi:type="arc" class="st12" d="
		M596.3,389.3c-18.6-67.9,21.4-138,89.3-156.6s138,21.4,156.6,89.3c6,22,6,45.3,0,67.3"/>
	
		<path id="path7579" sodipodi:cx="120.2316" sodipodi:cy="126.20222" sodipodi:end="6.5481389" sodipodi:open="true" sodipodi:rx="63.119129" sodipodi:ry="63.119129" sodipodi:start="2.8748733" sodipodi:type="arc" class="st13" d="
		M600.5,388.1c-17.9-65.6,20.7-133.4,86.4-151.3s133.4,20.7,151.3,86.4c5.8,21.2,5.8,43.5,0.1,64.7"/>
	
		<path id="path7581" sodipodi:cx="120.2316" sodipodi:cy="126.20222" sodipodi:end="6.546572" sodipodi:open="true" sodipodi:rx="63.119129" sodipodi:ry="63.119129" sodipodi:start="2.8754806" sodipodi:type="arc" class="st14" d="
		M604.9,386.8c-17.2-63.2,20-128.3,83.2-145.5s128.3,20,145.5,83.2c5.5,20.3,5.6,41.7,0.1,62"/>
	
		<path id="path7583" sodipodi:cx="120.2316" sodipodi:cy="126.20222" sodipodi:end="6.5489487" sodipodi:open="true" sodipodi:rx="63.119129" sodipodi:ry="63.119129" sodipodi:start="2.8766733" sodipodi:type="arc" class="st15" d="
		M609.7,385.4c-16.4-60.5,19.3-122.9,79.8-139.3c60.5-16.4,122.9,19.3,139.3,79.8c5.3,19.5,5.3,40,0,59.5"/>
	<path id="path9194" sodipodi:nodetypes="cssccsscc" class="st16" d="M824.6,379.7c5.1-19.5,4.3-32.9-0.9-52.3
		c-15.6-57.6-75.1-91.7-132.7-76.1c-57.6,15.6-87.8,71.3-77.6,126.2l5-1.7c-10.3-51.8,19.2-104.5,74-119.4
		c54.7-14.9,111.3,17.5,126.1,72.2c5,18.6,5.7,30.9,1,49.6L824.6,379.7z"/>
</g>
<g id="g10217" transform="translate(-296.163, -7.46962)">
	
		<path id="path7515" sodipodi:cx="120.2316" sodipodi:cy="126.20222" sodipodi:end="6.5489137" sodipodi:open="true" sodipodi:rx="63.119129" sodipodi:ry="63.119129" sodipodi:start="2.8737576" sodipodi:type="arc" class="st17" d="
		M482,420.7c-36-131,41.1-266.4,172.1-302.4s266.4,41.1,302.4,172.1c11.6,42.4,11.7,87.2,0.1,129.7"/>
	
		<path id="path7517" sodipodi:cx="120.2316" sodipodi:cy="126.20222" sodipodi:end="6.5478712" sodipodi:open="true" sodipodi:rx="63.119129" sodipodi:ry="63.119129" sodipodi:start="2.8734547" sodipodi:type="arc" class="st17" d="
		M486.9,419.5c-35.3-128.4,40.2-261,168.6-296.3s261,40.2,296.3,168.6c11.4,41.5,11.5,85.3,0.2,126.9"/>
	
		<path id="path7519" sodipodi:cx="120.2316" sodipodi:cy="126.20222" sodipodi:end="6.5491021" sodipodi:open="true" sodipodi:rx="63.119129" sodipodi:ry="63.119129" sodipodi:start="2.8731495" sodipodi:type="arc" class="st17" d="
		M491.7,418.2c-34.6-125.7,39.3-255.6,165-290.2s255.6,39.3,290.2,165c11.2,40.8,11.3,83.8,0.2,124.6"/>
	
		<path id="path7521" sodipodi:cx="120.2316" sodipodi:cy="126.20222" sodipodi:end="6.5499605" sodipodi:open="true" sodipodi:rx="63.119129" sodipodi:ry="63.119129" sodipodi:start="2.8751215" sodipodi:type="arc" class="st17" d="
		M495.9,416.6c-33.7-123.4,39-250.7,162.4-284.4s250.7,39,284.4,162.4c10.9,39.9,10.9,82.1,0,122"/>
	
		<path id="path7523" sodipodi:cx="120.2316" sodipodi:cy="126.20222" sodipodi:end="6.5495511" sodipodi:open="true" sodipodi:rx="63.119129" sodipodi:ry="63.119129" sodipodi:start="2.8739416" sodipodi:type="arc" class="st17" d="
		M500.8,415.6c-33.1-120.7,37.9-245.3,158.6-278.4s245.3,37.9,278.4,158.6c10.7,39.1,10.8,80.4,0.1,119.6"/>
	
		<path id="path7525" sodipodi:cx="120.2316" sodipodi:cy="126.20222" sodipodi:end="6.5514039" sodipodi:open="true" sodipodi:rx="63.119129" sodipodi:ry="63.119129" sodipodi:start="2.8750055" sodipodi:type="arc" class="st17" d="
		M505.6,414c-32.2-118,37.3-239.9,155.4-272.1S900.8,179.2,933,297.3c10.5,38.3,10.4,78.8-0.1,117.1"/>
	
		<path id="path7527" sodipodi:cx="120.2316" sodipodi:cy="126.20222" sodipodi:end="6.5501359" sodipodi:open="true" sodipodi:rx="63.119129" sodipodi:ry="63.119129" sodipodi:start="2.8733875" sodipodi:type="arc" class="st17" d="
		M510.5,413c-31.7-115.3,36.1-234.5,151.4-266.2s234.5,36.1,266.2,151.4c10.3,37.5,10.3,77,0.1,114.5"/>
	
		<path id="path7529" sodipodi:cx="120.2316" sodipodi:cy="126.20222" sodipodi:end="6.5513385" sodipodi:open="true" sodipodi:rx="63.119129" sodipodi:ry="63.119129" sodipodi:start="2.8734139" sodipodi:type="arc" class="st17" d="
		M515.3,411.7c-31-112.6,35.3-229.1,147.9-260s229.1,35.3,260,147.9c10.1,36.7,10.1,75.4,0,112.1"/>
	
		<path id="path7531" sodipodi:cx="120.2316" sodipodi:cy="126.20222" sodipodi:end="6.5506334" sodipodi:open="true" sodipodi:rx="63.119129" sodipodi:ry="63.119129" sodipodi:start="2.8739415" sodipodi:type="arc" class="st17" d="
		M520.1,410.3c-30.2-110,34.6-223.6,144.6-253.8c110-30.2,223.6,34.6,253.8,144.6c9.8,35.7,9.8,73.5,0,109.2"/>
	
		<path id="path7533" sodipodi:cx="120.2316" sodipodi:cy="126.20222" sodipodi:end="6.5509161" sodipodi:open="true" sodipodi:rx="63.119129" sodipodi:ry="63.119129" sodipodi:start="2.8749071" sodipodi:type="arc" class="st17" d="
		M524.9,408.7c-29.3-107.4,33.9-218.2,141.3-247.5s218.2,33.9,247.5,141.3c9.5,34.8,9.5,71.6-0.1,106.4"/>
	
		<path id="path7535" sodipodi:cx="120.2316" sodipodi:cy="126.20222" sodipodi:end="6.5505878" sodipodi:open="true" sodipodi:rx="63.119129" sodipodi:ry="63.119129" sodipodi:start="2.8739569" sodipodi:type="arc" class="st17" d="
		M529.8,407.6c-28.7-104.7,32.9-212.8,137.5-241.5S880.1,199,908.8,303.7c9.3,34,9.3,69.9,0,103.9"/>
	
		<path id="path7537" sodipodi:cx="120.2316" sodipodi:cy="126.20222" sodipodi:end="6.5503233" sodipodi:open="true" sodipodi:rx="63.119129" sodipodi:ry="63.119129" sodipodi:start="2.8729073" sodipodi:type="arc" class="st17" d="
		M534.7,406.5c-28.1-102,31.8-207.4,133.8-235.5s207.4,31.8,235.5,133.8c9.1,33.2,9.2,68.2,0.1,101.4"/>
	
		<path id="path7539" sodipodi:cx="120.2316" sodipodi:cy="126.20222" sodipodi:end="6.5496212" sodipodi:open="true" sodipodi:rx="63.119129" sodipodi:ry="63.119129" sodipodi:start="2.8736685" sodipodi:type="arc" class="st17" d="
		M538.9,405.2c-27.3-99.6,31.2-202.5,130.9-229.9s202.5,31.2,229.9,130.9c8.9,32.3,8.9,66.4,0.1,98.8"/>
	
		<path id="path7541" sodipodi:cx="120.2316" sodipodi:cy="126.20222" sodipodi:end="6.5496525" sodipodi:open="true" sodipodi:rx="63.119129" sodipodi:ry="63.119129" sodipodi:start="2.8741355" sodipodi:type="arc" class="st17" d="
		M543.2,403.9c-26.7-97.3,30.6-197.7,127.8-224.4s197.7,30.6,224.4,127.8c8.6,31.5,8.7,64.8,0,96.3"/>
</g>
<g id="g4954" transform="matrix(0.440361, 0, 0, 1.00277, -75.3533, 69.7546)">
	<rect id="rect4956" x="1122.2" y="171.4" class="st18" width="20.1" height="3.6"/>
	<rect id="rect4958" x="1122.2" y="167.4" class="st18" width="20.1" height="3.6"/>
	<rect id="rect4960" x="1122.2" y="163.3" class="st18" width="20.1" height="3.6"/>
	<rect id="rect4962" x="1122.2" y="159.3" class="st18" width="20.1" height="3.6"/>
	<rect id="rect4964" x="1122.2" y="155.2" class="st18" width="20.1" height="3.6"/>
	<rect id="rect4966" x="1122.2" y="151.2" class="st18" width="20.1" height="3.6"/>
	<rect id="rect4968" x="1122.2" y="147.1" class="st18" width="20.1" height="3.6"/>
	<rect id="rect4970" x="1122.2" y="143.1" class="st18" width="20.1" height="3.6"/>
	<rect id="rect4972" x="1122.2" y="139" class="st18" width="20.1" height="3.6"/>
	<rect id="rect4974" x="1122.2" y="135" class="st18" width="20.1" height="3.6"/>
	<rect id="rect4976" x="1122.2" y="130.9" class="st18" width="20.1" height="3.6"/>
	<rect id="rect4978" x="1122.2" y="126.9" class="st18" width="20.1" height="3.6"/>
	<rect id="rect4980" x="1122.2" y="122.8" class="st18" width="20.1" height="3.6"/>
	<rect id="rect4982" x="1122.2" y="118.8" class="st18" width="20.1" height="3.6"/>
	<rect id="rect4984" x="1122.2" y="114.7" class="st18" width="20.1" height="3.6"/>
	<rect id="rect4986" x="1122.2" y="110.7" class="st18" width="20.1" height="3.6"/>
</g>
<g id="g27711" transform="matrix(0.117565, -0.424377, -0.948986, -0.262898, 167.797, 358.741)">
	
		<rect id="rect27713" x="182.4" y="-432.3" transform="matrix(-1 2.534905e-06 -2.534905e-06 -1 384.8172 -868.22)" class="st18" width="20.1" height="-3.6"/>
	
		<rect id="rect27715" x="182.4" y="-436.3" transform="matrix(-1 2.534905e-06 -2.534905e-06 -1 384.8172 -876.319)" class="st18" width="20.1" height="-3.6"/>
	
		<rect id="rect27717" x="182.4" y="-440.4" transform="matrix(-1 2.534905e-06 -2.534905e-06 -1 384.8172 -884.4178)" class="st18" width="20.1" height="-3.6"/>
	
		<rect id="rect27719" x="182.4" y="-444.4" transform="matrix(-1 2.534905e-06 -2.534905e-06 -1 384.8171 -892.5168)" class="st18" width="20.1" height="-3.6"/>
	
		<rect id="rect27721" x="182.4" y="-448.5" transform="matrix(-1 2.534905e-06 -2.534905e-06 -1 384.8171 -900.6157)" class="st18" width="20.1" height="-3.6"/>
	
		<rect id="rect27723" x="182.4" y="-452.5" transform="matrix(-1 2.534905e-06 -2.534905e-06 -1 384.8171 -908.7145)" class="st18" width="20.1" height="-3.6"/>
	
		<rect id="rect27725" x="182.4" y="-456.6" transform="matrix(-1 2.534905e-06 -2.534905e-06 -1 384.8171 -916.8135)" class="st18" width="20.1" height="-3.6"/>
	
		<rect id="rect27727" x="182.4" y="-460.6" transform="matrix(-1 2.534905e-06 -2.534905e-06 -1 384.8171 -924.9124)" class="st18" width="20.1" height="-3.6"/>
	
		<rect id="rect27729" x="182.4" y="-464.7" transform="matrix(-1 2.534905e-06 -2.534905e-06 -1 384.8171 -933.0112)" class="st18" width="20.1" height="-3.6"/>
	
		<rect id="rect27731" x="182.4" y="-468.7" transform="matrix(-1 2.534905e-06 -2.534905e-06 -1 384.8171 -941.1102)" class="st18" width="20.1" height="-3.6"/>
	
		<rect id="rect27733" x="182.4" y="-472.8" transform="matrix(-1 2.534905e-06 -2.534905e-06 -1 384.8171 -949.209)" class="st18" width="20.1" height="-3.6"/>
	
		<rect id="rect27735" x="182.4" y="-476.8" transform="matrix(-1 2.534905e-06 -2.534905e-06 -1 384.8171 -957.3079)" class="st18" width="20.1" height="-3.6"/>
	
		<rect id="rect27737" x="182.4" y="-480.9" transform="matrix(-1 2.534905e-06 -2.534905e-06 -1 384.817 -965.4069)" class="st18" width="20.1" height="-3.6"/>
	
		<rect id="rect27739" x="182.4" y="-484.9" transform="matrix(-1 2.534905e-06 -2.534905e-06 -1 384.817 -973.5057)" class="st18" width="20.1" height="-3.6"/>
	
		<rect id="rect27741" x="182.4" y="-489" transform="matrix(-1 2.534905e-06 -2.534905e-06 -1 384.817 -981.6047)" class="st18" width="20.1" height="-3.6"/>
	
		<rect id="rect27743" x="182.4" y="-493" transform="matrix(-1 2.534905e-06 -2.534905e-06 -1 384.817 -989.7036)" class="st18" width="20.1" height="-3.6"/>
</g>
<g id="g30730" transform="matrix(-0.00250597, -0.440353, 0.984712, -0.00560374, 69.6425, 347.093)" inkscape:transform-center-x="39.597854" inkscape:transform-center-y="5.7465774">
	
		<rect id="rect30732" x="-5.7" y="167.2" transform="matrix(-2.466875e-06 -1 1 -2.466875e-06 -173.2498 170.0945)" class="st18" width="8.2" height="9"/>
	
		<rect id="rect30734" x="-5.7" y="163.1" transform="matrix(-2.466875e-06 -1 1 -2.466875e-06 -169.2003 166.045)" class="st18" width="8.2" height="9"/>
	
		<rect id="rect30736" x="-5.7" y="159.1" transform="matrix(-2.466875e-06 -1 1 -2.466875e-06 -165.1508 161.9955)" class="st18" width="8.2" height="9"/>
	
		<rect id="rect30738" x="-5.7" y="155" transform="matrix(-2.466875e-06 -1 1 -2.466875e-06 -161.1014 157.9461)" class="st18" width="8.2" height="9"/>
	
		<rect id="rect30740" x="-5.7" y="151" transform="matrix(-2.466875e-06 -1 1 -2.466875e-06 -157.0519 153.8966)" class="st18" width="8.2" height="9"/>
	
		<rect id="rect30742" x="-5.7" y="146.9" transform="matrix(-2.466875e-06 -1 1 -2.466875e-06 -153.0025 149.8472)" class="st18" width="8.2" height="9"/>
	
		<rect id="rect30744" x="-5.7" y="142.9" transform="matrix(-2.466875e-06 -1 1 -2.466875e-06 -148.953 145.7977)" class="st18" width="8.2" height="9"/>
	
		<rect id="rect30746" x="-5.7" y="138.8" transform="matrix(-2.466875e-06 -1 1 -2.466875e-06 -144.9036 141.7483)" class="st18" width="8.2" height="9"/>
	
		<rect id="rect30748" x="-5.7" y="134.8" transform="matrix(-2.466875e-06 -1 1 -2.466875e-06 -140.8541 137.6988)" class="st18" width="8.2" height="9"/>
	
		<rect id="rect30750" x="-5.7" y="130.7" transform="matrix(-2.466875e-06 -1 1 -2.466875e-06 -136.8047 133.6493)" class="st18" width="8.2" height="9"/>
	
		<rect id="rect30752" x="-5.7" y="126.7" transform="matrix(-2.466875e-06 -1 1 -2.466875e-06 -132.7552 129.5999)" class="st18" width="8.2" height="9"/>
	
		<rect id="rect30754" x="-5.7" y="122.6" transform="matrix(-2.466875e-06 -1 1 -2.466875e-06 -128.7058 125.5504)" class="st18" width="8.2" height="9"/>
	
		<rect id="rect30756" x="-5.7" y="118.6" transform="matrix(-2.466875e-06 -1 1 -2.466875e-06 -124.6563 121.501)" class="st18" width="8.2" height="9"/>
	
		<rect id="rect30758" x="-5.7" y="114.5" transform="matrix(-2.466875e-06 -1 1 -2.466875e-06 -120.6069 117.4515)" class="st18" width="8.2" height="9"/>
	
		<rect id="rect30760" x="-5.7" y="110.5" transform="matrix(-2.466875e-06 -1 1 -2.466875e-06 -116.5574 113.4021)" class="st18" width="8.2" height="9"/>
	
		<rect id="rect30762" x="-5.7" y="106.4" transform="matrix(-2.466875e-06 -1 1 -2.466875e-06 -112.508 109.3526)" class="st18" width="8.2" height="9"/>
</g>
<g id="g30764" transform="matrix(-0.00250597, -0.440353, 1.00276, -0.00570636, 97.4949, 346.962)" inkscape:transform-center-x="-59.43542" inkscape:transform-center-y="5.2807338">
	
		<rect id="rect30766" x="-5.8" y="216" transform="matrix(-2.466875e-06 -1 1 -2.466875e-06 -222.0534 218.6696)" class="st18" width="8.3" height="8.8"/>
	
		<rect id="rect30768" x="-5.8" y="211.9" transform="matrix(-2.466875e-06 -1 1 -2.466875e-06 -218.004 214.6201)" class="st18" width="8.3" height="8.8"/>
	
		<rect id="rect30770" x="-5.8" y="207.9" transform="matrix(-2.466875e-06 -1 1 -2.466875e-06 -213.9545 210.5706)" class="st18" width="8.3" height="8.8"/>
	
		<rect id="rect30772" x="-5.8" y="203.8" transform="matrix(-2.466875e-06 -1 1 -2.466875e-06 -209.9051 206.5212)" class="st18" width="8.3" height="8.8"/>
	
		<rect id="rect30774" x="-5.8" y="199.8" transform="matrix(-2.466875e-06 -1 1 -2.466875e-06 -205.8556 202.4717)" class="st18" width="8.3" height="8.8"/>
	
		<rect id="rect30776" x="-5.8" y="195.7" transform="matrix(-2.466875e-06 -1 1 -2.466875e-06 -201.8062 198.4223)" class="st18" width="8.3" height="8.8"/>
	
		<rect id="rect30778" x="-5.8" y="191.7" transform="matrix(-2.466875e-06 -1 1 -2.466875e-06 -197.7567 194.3728)" class="st18" width="8.3" height="8.8"/>
	
		<rect id="rect30780" x="-5.8" y="187.6" transform="matrix(-2.466875e-06 -1 1 -2.466875e-06 -193.7073 190.3233)" class="st18" width="8.3" height="8.8"/>
	
		<rect id="rect30782" x="-5.8" y="183.6" transform="matrix(-2.466875e-06 -1 1 -2.466875e-06 -189.6578 186.2739)" class="st18" width="8.3" height="8.8"/>
	
		<rect id="rect30784" x="-5.8" y="179.5" transform="matrix(-2.466875e-06 -1 1 -2.466875e-06 -185.6084 182.2244)" class="st18" width="8.3" height="8.8"/>
	
		<rect id="rect30786" x="-5.8" y="175.5" transform="matrix(-2.466875e-06 -1 1 -2.466875e-06 -181.5589 178.1749)" class="st18" width="8.3" height="8.8"/>
	
		<rect id="rect30788" x="-5.8" y="171.4" transform="matrix(-2.466875e-06 -1 1 -2.466875e-06 -177.5095 174.1255)" class="st18" width="8.3" height="8.8"/>
	
		<rect id="rect30790" x="-5.8" y="167.4" transform="matrix(-2.466875e-06 -1 1 -2.466875e-06 -173.4601 170.076)" class="st18" width="8.3" height="8.8"/>
	
		<rect id="rect30792" x="-5.8" y="163.3" transform="matrix(-2.466875e-06 -1 1 -2.466875e-06 -169.4106 166.0266)" class="st18" width="8.3" height="8.8"/>
	
		<rect id="rect30794" x="-5.8" y="159.3" transform="matrix(-2.466875e-06 -1 1 -2.466875e-06 -165.3612 161.9771)" class="st18" width="8.3" height="8.8"/>
	
		<rect id="rect30796" x="-5.8" y="155.2" transform="matrix(-2.466875e-06 -1 1 -2.466875e-06 -161.3117 157.9276)" class="st18" width="8.3" height="8.8"/>
</g>
<g id="g30798" transform="matrix(0.00250597, -0.440353, -0.984712, -0.00560374, 228.99, 347.249)" inkscape:transform-center-x="-39.597849" inkscape:transform-center-y="5.7465774">
	
		<rect id="rect30800" x="-5.2" y="-382.9" transform="matrix(-1 2.603489e-06 -2.603489e-06 -1 9.7044 -769.4054)" class="st18" width="20.1" height="-3.6"/>
	
		<rect id="rect30802" x="-5.2" y="-386.9" transform="matrix(-1 2.603489e-06 -2.603489e-06 -1 9.7044 -777.5043)" class="st18" width="20.1" height="-3.6"/>
	
		<rect id="rect30804" x="-5.2" y="-391" transform="matrix(-1 2.603489e-06 -2.603489e-06 -1 9.7044 -785.6032)" class="st18" width="20.1" height="-3.6"/>
	
		<rect id="rect30806" x="-5.2" y="-395" transform="matrix(-1 2.603489e-06 -2.603489e-06 -1 9.7044 -793.7021)" class="st18" width="20.1" height="-3.6"/>
	
		<rect id="rect30808" x="-5.2" y="-399.1" transform="matrix(-1 2.603489e-06 -2.603489e-06 -1 9.7044 -801.801)" class="st18" width="20.1" height="-3.6"/>
	
		<rect id="rect30810" x="-5.2" y="-403.1" transform="matrix(-1 2.603489e-06 -2.603489e-06 -1 9.7043 -809.8999)" class="st18" width="20.1" height="-3.6"/>
	
		<rect id="rect30812" x="-5.2" y="-407.2" transform="matrix(-1 2.603489e-06 -2.603489e-06 -1 9.7043 -817.9988)" class="st18" width="20.1" height="-3.6"/>
	
		<rect id="rect30814" x="-5.2" y="-411.2" transform="matrix(-1 2.603489e-06 -2.603489e-06 -1 9.7043 -826.0977)" class="st18" width="20.1" height="-3.6"/>
	
		<rect id="rect30816" x="-5.2" y="-415.3" transform="matrix(-1 2.603489e-06 -2.603489e-06 -1 9.7043 -834.1966)" class="st18" width="20.1" height="-3.6"/>
	
		<rect id="rect30818" x="-5.2" y="-419.3" transform="matrix(-1 2.603489e-06 -2.603489e-06 -1 9.7043 -842.2955)" class="st18" width="20.1" height="-3.6"/>
	
		<rect id="rect30820" x="-5.2" y="-423.4" transform="matrix(-1 2.603489e-06 -2.603489e-06 -1 9.7043 -850.3944)" class="st18" width="20.1" height="-3.6"/>
	
		<rect id="rect30822" x="-5.2" y="-427.4" transform="matrix(-1 2.603489e-06 -2.603489e-06 -1 9.7043 -858.4933)" class="st18" width="20.1" height="-3.6"/>
	
		<rect id="rect30824" x="-5.2" y="-431.5" transform="matrix(-1 2.603489e-06 -2.603489e-06 -1 9.7043 -866.5922)" class="st18" width="20.1" height="-3.6"/>
	
		<rect id="rect30826" x="-5.2" y="-435.5" transform="matrix(-1 2.603489e-06 -2.603489e-06 -1 9.7043 -874.6911)" class="st18" width="20.1" height="-3.6"/>
	
		<rect id="rect30828" x="-5.2" y="-439.6" transform="matrix(-1 2.603489e-06 -2.603489e-06 -1 9.7043 -882.79)" class="st18" width="20.1" height="-3.6"/>
	
		<rect id="rect30830" x="-5.2" y="-443.6" transform="matrix(-1 2.603489e-06 -2.603489e-06 -1 9.7043 -890.8889)" class="st18" width="20.1" height="-3.6"/>
</g>
<g id="g30832" transform="matrix(0.00250597, -0.440353, -1.00276, -0.00570636, 201.138, 347.118)" inkscape:transform-center-x="59.435425" inkscape:transform-center-y="5.2807338">
	
		<rect id="rect30834" x="-5.3" y="-324.2" transform="matrix(-1 2.603489e-06 -2.603489e-06 -1 9.4741 -652.0006)" class="st18" width="20.1" height="-3.6"/>
	
		<rect id="rect30836" x="-5.3" y="-328.2" transform="matrix(-1 2.603489e-06 -2.603489e-06 -1 9.4741 -660.0995)" class="st18" width="20.1" height="-3.6"/>
	
		<rect id="rect30838" x="-5.3" y="-332.3" transform="matrix(-1 2.603489e-06 -2.603489e-06 -1 9.4741 -668.1984)" class="st18" width="20.1" height="-3.6"/>
	
		<rect id="rect30840" x="-5.3" y="-336.3" transform="matrix(-1 2.603489e-06 -2.603489e-06 -1 9.4741 -676.2973)" class="st18" width="20.1" height="-3.6"/>
	
		<rect id="rect30842" x="-5.3" y="-340.4" transform="matrix(-1 2.603489e-06 -2.603489e-06 -1 9.474 -684.3962)" class="st18" width="20.1" height="-3.6"/>
	
		<rect id="rect30844" x="-5.3" y="-344.4" transform="matrix(-1 2.603489e-06 -2.603489e-06 -1 9.474 -692.4951)" class="st18" width="20.1" height="-3.6"/>
	
		<rect id="rect30846" x="-5.3" y="-348.5" transform="matrix(-1 2.603489e-06 -2.603489e-06 -1 9.474 -700.594)" class="st18" width="20.1" height="-3.6"/>
	
		<rect id="rect30848" x="-5.3" y="-352.5" transform="matrix(-1 2.603489e-06 -2.603489e-06 -1 9.474 -708.6929)" class="st18" width="20.1" height="-3.6"/>
	
		<rect id="rect30850" x="-5.3" y="-356.6" transform="matrix(-1 2.603489e-06 -2.603489e-06 -1 9.474 -716.7918)" class="st18" width="20.1" height="-3.6"/>
	
		<rect id="rect30852" x="-5.3" y="-360.6" transform="matrix(-1 2.603489e-06 -2.603489e-06 -1 9.474 -724.8907)" class="st18" width="20.1" height="-3.6"/>
	
		<rect id="rect30854" x="-5.3" y="-364.7" transform="matrix(-1 2.603489e-06 -2.603489e-06 -1 9.4739 -732.9896)" class="st18" width="20.1" height="-3.6"/>
	
		<rect id="rect30856" x="-5.3" y="-368.7" transform="matrix(-1 2.603489e-06 -2.603489e-06 -1 9.4739 -741.0885)" class="st18" width="20.1" height="-3.6"/>
	
		<rect id="rect30858" x="-5.3" y="-372.8" transform="matrix(-1 2.603489e-06 -2.603489e-06 -1 9.4739 -749.1874)" class="st18" width="20.1" height="-3.6"/>
	
		<rect id="rect30860" x="-5.3" y="-376.8" transform="matrix(-1 2.603489e-06 -2.603489e-06 -1 9.4739 -757.2863)" class="st18" width="20.1" height="-3.6"/>
	
		<rect id="rect30862" x="-5.3" y="-380.9" transform="matrix(-1 2.603489e-06 -2.603489e-06 -1 9.4739 -765.3852)" class="st18" width="20.1" height="-3.6"/>
	
		<rect id="rect30864" x="-5.3" y="-384.9" transform="matrix(-1 2.603489e-06 -2.603489e-06 -1 9.4739 -773.4841)" class="st18" width="20.1" height="-3.6"/>
</g>
<g id="g30866" transform="matrix(0.112713, -0.425691, 0.951926, 0.252047, 13.647, 318.49)" inkscape:transform-center-x="258.23722" inkscape:transform-center-y="-69.70498">
	
		<rect id="rect30868" x="167.9" y="220.2" transform="matrix(-1 2.536499e-06 -2.536499e-06 -1 355.9424 444.121)" class="st18" width="20.1" height="3.6"/>
	
		<rect id="rect30870" x="167.9" y="216.2" transform="matrix(-1 2.536499e-06 -2.536499e-06 -1 355.9424 436.0221)" class="st18" width="20.1" height="3.6"/>
	
		<rect id="rect30872" x="167.9" y="212.1" transform="matrix(-1 2.536499e-06 -2.536499e-06 -1 355.9424 427.9232)" class="st18" width="20.1" height="3.6"/>
	
		<rect id="rect30874" x="167.9" y="208.1" transform="matrix(-1 2.536499e-06 -2.536499e-06 -1 355.9424 419.8243)" class="st18" width="20.1" height="3.6"/>
	
		<rect id="rect30876" x="167.9" y="204" transform="matrix(-1 2.536499e-06 -2.536499e-06 -1 355.9424 411.7254)" class="st18" width="20.1" height="3.6"/>
	
		<rect id="rect30878" x="167.9" y="200" transform="matrix(-1 2.536499e-06 -2.536499e-06 -1 355.9424 403.6265)" class="st18" width="20.1" height="3.6"/>
	
		<rect id="rect30880" x="167.9" y="195.9" transform="matrix(-1 2.536499e-06 -2.536499e-06 -1 355.9424 395.5276)" class="st18" width="20.1" height="3.6"/>
	
		<rect id="rect30882" x="167.9" y="191.9" transform="matrix(-1 2.536499e-06 -2.536499e-06 -1 355.9423 387.4287)" class="st18" width="20.1" height="3.6"/>
	
		<rect id="rect30884" x="167.9" y="187.8" transform="matrix(-1 2.536499e-06 -2.536499e-06 -1 355.9423 379.3298)" class="st18" width="20.1" height="3.6"/>
	
		<rect id="rect30886" x="167.9" y="183.8" transform="matrix(-1 2.536499e-06 -2.536499e-06 -1 355.9423 371.2309)" class="st18" width="20.1" height="3.6"/>
	
		<rect id="rect30888" x="167.9" y="179.7" transform="matrix(-1 2.536499e-06 -2.536499e-06 -1 355.9423 363.132)" class="st18" width="20.1" height="3.6"/>
	
		<rect id="rect30890" x="167.9" y="175.7" transform="matrix(-1 2.536499e-06 -2.536499e-06 -1 355.9423 355.0331)" class="st18" width="20.1" height="3.6"/>
	
		<rect id="rect30892" x="167.9" y="171.6" transform="matrix(-1 2.536499e-06 -2.536499e-06 -1 355.9423 346.9342)" class="st18" width="20.1" height="3.6"/>
	
		<rect id="rect30894" x="167.9" y="167.6" transform="matrix(-1 2.536499e-06 -2.536499e-06 -1 355.9423 338.8353)" class="st18" width="20.1" height="3.6"/>
	
		<rect id="rect30896" x="167.9" y="163.5" transform="matrix(-1 2.536499e-06 -2.536499e-06 -1 355.9423 330.7364)" class="st18" width="20.1" height="3.6"/>
	
		<rect id="rect30898" x="167.9" y="159.5" transform="matrix(-1 2.536499e-06 -2.536499e-06 -1 355.9423 322.6375)" class="st18" width="20.1" height="3.6"/>
</g>
<g id="g30934" transform="matrix(-0.112713, -0.425691, -0.951926, 0.252047, 284.921, 318.844)" inkscape:transform-center-x="-258.23722" inkscape:transform-center-y="-69.70498">
	
		<rect id="rect30936" x="-145.9" y="-311" transform="matrix(-2.533864e-06 -1 1 -2.533864e-06 173.6617 -457.3422)" class="st18" width="8.2" height="-9"/>
	
		<rect id="rect30938" x="-145.9" y="-315.1" transform="matrix(-2.533864e-06 -1 1 -2.533864e-06 177.7112 -461.3916)" class="st18" width="8.2" height="-9"/>
	
		<rect id="rect30940" x="-145.9" y="-319.1" transform="matrix(-2.533864e-06 -1 1 -2.533864e-06 181.7606 -465.4411)" class="st18" width="8.2" height="-9"/>
	
		<rect id="rect30942" x="-145.9" y="-323.2" transform="matrix(-2.533864e-06 -1 1 -2.533864e-06 185.8101 -469.4905)" class="st18" width="8.2" height="-9"/>
	
		<rect id="rect30944" x="-145.9" y="-327.2" transform="matrix(-2.533864e-06 -1 1 -2.533864e-06 189.8595 -473.54)" class="st18" width="8.2" height="-9"/>
	
		<rect id="rect30946" x="-145.9" y="-331.3" transform="matrix(-2.533864e-06 -1 1 -2.533864e-06 193.909 -477.5895)" class="st18" width="8.2" height="-9"/>
	
		<rect id="rect30948" x="-145.9" y="-335.3" transform="matrix(-2.533864e-06 -1 1 -2.533864e-06 197.9584 -481.6389)" class="st18" width="8.2" height="-9"/>
	
		<rect id="rect30950" x="-145.9" y="-339.4" transform="matrix(-2.533864e-06 -1 1 -2.533864e-06 202.0079 -485.6884)" class="st18" width="8.2" height="-9"/>
	
		<rect id="rect30952" x="-145.9" y="-343.4" transform="matrix(-2.533864e-06 -1 1 -2.533864e-06 206.0573 -489.7379)" class="st18" width="8.2" height="-9"/>
	
		<rect id="rect30954" x="-145.9" y="-347.5" transform="matrix(-2.533864e-06 -1 1 -2.533864e-06 210.1068 -493.7873)" class="st18" width="8.2" height="-9"/>
	
		<rect id="rect30956" x="-145.9" y="-351.5" transform="matrix(-2.533864e-06 -1 1 -2.533864e-06 214.1562 -497.8368)" class="st18" width="8.2" height="-9"/>
	
		<rect id="rect30958" x="-145.9" y="-355.6" transform="matrix(-2.533864e-06 -1 1 -2.533864e-06 218.2057 -501.8862)" class="st18" width="8.2" height="-9"/>
	
		<rect id="rect30960" x="-145.9" y="-359.6" transform="matrix(-2.533864e-06 -1 1 -2.533864e-06 222.2551 -505.9357)" class="st18" width="8.2" height="-9"/>
	
		<rect id="rect30962" x="-145.9" y="-363.7" transform="matrix(-2.533864e-06 -1 1 -2.533864e-06 226.3046 -509.9851)" class="st18" width="8.2" height="-9"/>
	
		<rect id="rect30964" x="-145.9" y="-367.7" transform="matrix(-2.533864e-06 -1 1 -2.533864e-06 230.354 -514.0346)" class="st18" width="8.2" height="-9"/>
	
		<rect id="rect30966" x="-145.9" y="-371.8" transform="matrix(-2.533864e-06 -1 1 -2.533864e-06 234.4035 -518.084)" class="st18" width="8.2" height="-9"/>
</g>
<g id="g31002" transform="matrix(0.217335, -0.382992, 0.856442, 0.486001, -31.8079, 277.55)" inkscape:transform-center-x="231.99604" inkscape:transform-center-y="-133.12801">
	
		<rect id="rect31004" x="365" y="247.4" transform="matrix(-1 2.533243e-06 -2.533243e-06 -1 750.0475 498.5442)" class="st18" width="20.1" height="3.6"/>
	
		<rect id="rect31006" x="365" y="243.4" transform="matrix(-1 2.533243e-06 -2.533243e-06 -1 750.0475 490.4453)" class="st18" width="20.1" height="3.6"/>
	
		<rect id="rect31008" x="365" y="239.3" transform="matrix(-1 2.533243e-06 -2.533243e-06 -1 750.0475 482.3464)" class="st18" width="20.1" height="3.6"/>
	
		<rect id="rect31010" x="365" y="235.3" transform="matrix(-1 2.533243e-06 -2.533243e-06 -1 750.0475 474.2475)" class="st18" width="20.1" height="3.6"/>
	
		<rect id="rect31012" x="365" y="231.3" transform="matrix(-1 2.533243e-06 -2.533243e-06 -1 750.0474 466.1486)" class="st18" width="20.1" height="3.6"/>
	
		<rect id="rect31014" x="365" y="227.2" transform="matrix(-1 2.533243e-06 -2.533243e-06 -1 750.0474 458.0497)" class="st18" width="20.1" height="3.6"/>
	
		<rect id="rect31016" x="365" y="223.2" transform="matrix(-1 2.533243e-06 -2.533243e-06 -1 750.0474 449.9508)" class="st18" width="20.1" height="3.6"/>
	
		<rect id="rect31018" x="365" y="219.1" transform="matrix(-1 2.533243e-06 -2.533243e-06 -1 750.0474 441.8519)" class="st18" width="20.1" height="3.6"/>
	
		<rect id="rect31020" x="365" y="215.1" transform="matrix(-1 2.533243e-06 -2.533243e-06 -1 750.0474 433.753)" class="st18" width="20.1" height="3.6"/>
	
		<rect id="rect31022" x="365" y="211" transform="matrix(-1 2.533243e-06 -2.533243e-06 -1 750.0474 425.6541)" class="st18" width="20.1" height="3.6"/>
	
		<rect id="rect31024" x="365" y="207" transform="matrix(-1 2.533243e-06 -2.533243e-06 -1 750.0474 417.5552)" class="st18" width="20.1" height="3.6"/>
	
		<rect id="rect31026" x="365" y="202.9" transform="matrix(-1 2.533243e-06 -2.533243e-06 -1 750.0474 409.4563)" class="st18" width="20.1" height="3.6"/>
	
		<rect id="rect31028" x="365" y="198.9" transform="matrix(-1 2.533243e-06 -2.533243e-06 -1 750.0474 401.3574)" class="st18" width="20.1" height="3.6"/>
	
		<rect id="rect31030" x="365" y="194.8" transform="matrix(-1 2.533243e-06 -2.533243e-06 -1 750.0474 393.2585)" class="st18" width="20.1" height="3.6"/>
	
		<rect id="rect31032" x="365" y="190.8" transform="matrix(-1 2.533243e-06 -2.533243e-06 -1 750.0474 385.1596)" class="st18" width="20.1" height="3.6"/>
	
		<rect id="rect31034" x="365" y="186.7" transform="matrix(-1 2.533243e-06 -2.533243e-06 -1 750.0474 377.0607)" class="st18" width="20.1" height="3.6"/>
</g>
<g id="g31036" transform="matrix(0.217335, -0.382992, 0.872136, 0.494907, -7.48713, 291.403)" inkscape:transform-center-x="145.91175" inkscape:transform-center-y="-84.165833">
	
		<rect id="rect31038" x="364.8" y="295" transform="matrix(-1 2.533243e-06 -2.533243e-06 -1 749.6721 593.6312)" class="st18" width="20.1" height="3.6"/>
	
		<rect id="rect31040" x="364.8" y="290.9" transform="matrix(-1 2.533243e-06 -2.533243e-06 -1 749.6721 585.5323)" class="st18" width="20.1" height="3.6"/>
	
		<rect id="rect31042" x="364.8" y="286.9" transform="matrix(-1 2.533243e-06 -2.533243e-06 -1 749.6721 577.4334)" class="st18" width="20.1" height="3.6"/>
	
		<rect id="rect31044" x="364.8" y="282.8" transform="matrix(-1 2.533243e-06 -2.533243e-06 -1 749.6721 569.3345)" class="st18" width="20.1" height="3.6"/>
	
		<rect id="rect31046" x="364.8" y="278.8" transform="matrix(-1 2.533243e-06 -2.533243e-06 -1 749.6721 561.2356)" class="st18" width="20.1" height="3.6"/>
	
		<rect id="rect31048" x="364.8" y="274.7" transform="matrix(-1 2.533243e-06 -2.533243e-06 -1 749.6721 553.1367)" class="st18" width="20.1" height="3.6"/>
	
		<rect id="rect31050" x="364.8" y="270.7" transform="matrix(-1 2.533243e-06 -2.533243e-06 -1 749.6721 545.0378)" class="st18" width="20.1" height="3.6"/>
	
		<rect id="rect31052" x="364.8" y="266.6" transform="matrix(-1 2.533243e-06 -2.533243e-06 -1 749.6721 536.9389)" class="st18" width="20.1" height="3.6"/>
	
		<rect id="rect31054" x="364.8" y="262.6" transform="matrix(-1 2.533243e-06 -2.533243e-06 -1 749.6721 528.84)" class="st18" width="20.1" height="3.6"/>
	
		<rect id="rect31056" x="364.8" y="258.5" transform="matrix(-1 2.533243e-06 -2.533243e-06 -1 749.6721 520.7411)" class="st18" width="20.1" height="3.6"/>
	
		<rect id="rect31058" x="364.8" y="254.5" transform="matrix(-1 2.533243e-06 -2.533243e-06 -1 749.6721 512.6422)" class="st18" width="20.1" height="3.6"/>
	
		<rect id="rect31060" x="364.8" y="250.4" transform="matrix(-1 2.533243e-06 -2.533243e-06 -1 749.6721 504.5433)" class="st18" width="20.1" height="3.6"/>
	
		<rect id="rect31062" x="364.8" y="246.4" transform="matrix(-1 2.533243e-06 -2.533243e-06 -1 749.672 496.4444)" class="st18" width="20.1" height="3.6"/>
	
		<rect id="rect31064" x="364.8" y="242.3" transform="matrix(-1 2.533243e-06 -2.533243e-06 -1 749.672 488.3455)" class="st18" width="20.1" height="3.6"/>
	
		<rect id="rect31066" x="364.8" y="238.3" transform="matrix(-1 2.533243e-06 -2.533243e-06 -1 749.672 480.2466)" class="st18" width="20.1" height="3.6"/>
	
		<rect id="rect31068" x="364.8" y="234.2" transform="matrix(-1 2.533243e-06 -2.533243e-06 -1 749.672 472.1477)" class="st18" width="20.1" height="3.6"/>
</g>
<g id="g31070" transform="matrix(-0.216827, -0.38328, -0.857085, 0.484866, 330.17, 278.143)" inkscape:transform-center-x="-232.17232" inkscape:transform-center-y="-132.82049">
	
		<rect id="rect31072" x="-243.9" y="-230.2" transform="matrix(-2.535258e-06 -1 1 -2.535258e-06 -5.1453 -474.4302)" class="st18" width="8.2" height="-9"/>
	
		<rect id="rect31074" x="-243.9" y="-234.2" transform="matrix(-2.535258e-06 -1 1 -2.535258e-06 -1.0958 -478.4796)" class="st18" width="8.2" height="-9"/>
	
		<rect id="rect31076" x="-243.9" y="-238.3" transform="matrix(-2.535258e-06 -1 1 -2.535258e-06 2.9536 -482.5291)" class="st18" width="8.2" height="-9"/>
	
		<rect id="rect31078" x="-243.9" y="-242.3" transform="matrix(-2.535258e-06 -1 1 -2.535258e-06 7.0031 -486.5786)" class="st18" width="8.2" height="-9"/>
	
		<rect id="rect31080" x="-243.9" y="-246.4" transform="matrix(-2.535258e-06 -1 1 -2.535258e-06 11.0525 -490.628)" class="st18" width="8.2" height="-9"/>
	
		<rect id="rect31082" x="-243.9" y="-250.4" transform="matrix(-2.535258e-06 -1 1 -2.535258e-06 15.102 -494.6775)" class="st18" width="8.2" height="-9"/>
	
		<rect id="rect31084" x="-243.9" y="-254.5" transform="matrix(-2.535258e-06 -1 1 -2.535258e-06 19.1514 -498.727)" class="st18" width="8.2" height="-9"/>
	
		<rect id="rect31086" x="-243.9" y="-258.5" transform="matrix(-2.535258e-06 -1 1 -2.535258e-06 23.2009 -502.7764)" class="st18" width="8.2" height="-9"/>
	
		<rect id="rect31088" x="-243.9" y="-262.6" transform="matrix(-2.535258e-06 -1 1 -2.535258e-06 27.2503 -506.8259)" class="st18" width="8.2" height="-9"/>
	
		<rect id="rect31090" x="-243.9" y="-266.6" transform="matrix(-2.535258e-06 -1 1 -2.535258e-06 31.2998 -510.8753)" class="st18" width="8.2" height="-9"/>
	
		<rect id="rect31092" x="-243.9" y="-270.7" transform="matrix(-2.535258e-06 -1 1 -2.535258e-06 35.3492 -514.9248)" class="st18" width="8.2" height="-9"/>
	
		<rect id="rect31094" x="-243.9" y="-274.7" transform="matrix(-2.535258e-06 -1 1 -2.535258e-06 39.3987 -518.9742)" class="st18" width="8.2" height="-9"/>
	
		<rect id="rect31096" x="-243.9" y="-278.8" transform="matrix(-2.535258e-06 -1 1 -2.535258e-06 43.4481 -523.0237)" class="st18" width="8.2" height="-9"/>
	
		<rect id="rect31098" x="-243.9" y="-282.8" transform="matrix(-2.535258e-06 -1 1 -2.535258e-06 47.4975 -527.0732)" class="st18" width="8.2" height="-9"/>
	
		<rect id="rect31100" x="-243.9" y="-286.8" transform="matrix(-2.535258e-06 -1 1 -2.535258e-06 51.547 -531.1226)" class="st18" width="8.2" height="-9"/>
	
		<rect id="rect31102" x="-243.9" y="-290.9" transform="matrix(-2.535258e-06 -1 1 -2.535258e-06 55.5964 -535.1721)" class="st18" width="8.2" height="-9"/>
</g>
<g id="g31104" transform="matrix(-0.216827, -0.38328, -0.872791, 0.493751, 305.941, 291.882)" inkscape:transform-center-x="-146.02322" inkscape:transform-center-y="-83.972372">
	
		<rect id="rect31106" x="-244.1" y="-174.2" transform="matrix(-2.535258e-06 -1 1 -2.535258e-06 -61.2648 -418.5444)" class="st18" width="8.3" height="-8.8"/>
	
		<rect id="rect31108" x="-244.1" y="-178.3" transform="matrix(-2.535258e-06 -1 1 -2.535258e-06 -57.2154 -422.5939)" class="st18" width="8.3" height="-8.8"/>
	
		<rect id="rect31110" x="-244.1" y="-182.3" transform="matrix(-2.535258e-06 -1 1 -2.535258e-06 -53.1659 -426.6434)" class="st18" width="8.3" height="-8.8"/>
	
		<rect id="rect31112" x="-244.1" y="-186.4" transform="matrix(-2.535258e-06 -1 1 -2.535258e-06 -49.1165 -430.6928)" class="st18" width="8.3" height="-8.8"/>
	
		<rect id="rect31114" x="-244.1" y="-190.4" transform="matrix(-2.535258e-06 -1 1 -2.535258e-06 -45.067 -434.7423)" class="st18" width="8.3" height="-8.8"/>
	
		<rect id="rect31116" x="-244.1" y="-194.5" transform="matrix(-2.535258e-06 -1 1 -2.535258e-06 -41.0176 -438.7917)" class="st18" width="8.3" height="-8.8"/>
	
		<rect id="rect31118" x="-244.1" y="-198.5" transform="matrix(-2.535258e-06 -1 1 -2.535258e-06 -36.9681 -442.8412)" class="st18" width="8.3" height="-8.8"/>
	
		<rect id="rect31120" x="-244.1" y="-202.6" transform="matrix(-2.535258e-06 -1 1 -2.535258e-06 -32.9187 -446.8907)" class="st18" width="8.3" height="-8.8"/>
	
		<rect id="rect31122" x="-244.1" y="-206.6" transform="matrix(-2.535258e-06 -1 1 -2.535258e-06 -28.8692 -450.9401)" class="st18" width="8.3" height="-8.8"/>
	
		<rect id="rect31124" x="-244.1" y="-210.7" transform="matrix(-2.535258e-06 -1 1 -2.535258e-06 -24.8198 -454.9896)" class="st18" width="8.3" height="-8.8"/>
	
		<rect id="rect31126" x="-244.1" y="-214.7" transform="matrix(-2.535258e-06 -1 1 -2.535258e-06 -20.7703 -459.039)" class="st18" width="8.3" height="-8.8"/>
	
		<rect id="rect31128" x="-244.1" y="-218.8" transform="matrix(-2.535258e-06 -1 1 -2.535258e-06 -16.7209 -463.0885)" class="st18" width="8.3" height="-8.8"/>
	
		<rect id="rect31130" x="-244.1" y="-222.8" transform="matrix(-2.535258e-06 -1 1 -2.535258e-06 -12.6714 -467.138)" class="st18" width="8.3" height="-8.8"/>
	
		<rect id="rect31132" x="-244.1" y="-226.9" transform="matrix(-2.535258e-06 -1 1 -2.535258e-06 -8.622 -471.1874)" class="st18" width="8.3" height="-8.8"/>
	
		<rect id="rect31134" x="-244.1" y="-230.9" transform="matrix(-2.535258e-06 -1 1 -2.535258e-06 -4.5725 -475.2369)" class="st18" width="8.3" height="-8.8"/>
	
		<rect id="rect31136" x="-244.1" y="-235" transform="matrix(-2.535258e-06 -1 1 -2.535258e-06 -0.5231 -479.2863)" class="st18" width="8.3" height="-8.8"/>
</g>
<g id="g31240" transform="matrix(-0.379712, -0.223016, -0.507843, 0.864667, 369.653, 190.666)" inkscape:transform-center-x="-84.281223" inkscape:transform-center-y="-145.8451">
	
		<rect id="rect31242" x="-288.3" y="8.3" transform="matrix(-2.530682e-06 -1 1 -2.530682e-06 -288.0193 -280.2421)" class="st18" width="8.3" height="-8.8"/>
	
		<rect id="rect31244" x="-288.3" y="4.2" transform="matrix(-2.530682e-06 -1 1 -2.530682e-06 -283.9698 -284.2916)" class="st18" width="8.3" height="-8.8"/>
	
		<rect id="rect31246" x="-288.3" y="0.2" transform="matrix(-2.530682e-06 -1 1 -2.530682e-06 -279.9204 -288.341)" class="st18" width="8.3" height="-8.8"/>
	
		<rect id="rect31248" x="-288.3" y="-3.9" transform="matrix(-2.530682e-06 -1 1 -2.530682e-06 -275.8709 -292.3905)" class="st18" width="8.3" height="-8.8"/>
	
		<rect id="rect31250" x="-288.3" y="-7.9" transform="matrix(-2.530682e-06 -1 1 -2.530682e-06 -271.8215 -296.4399)" class="st18" width="8.3" height="-8.8"/>
	
		<rect id="rect31252" x="-288.3" y="-12" transform="matrix(-2.530682e-06 -1 1 -2.530682e-06 -267.7721 -300.4894)" class="st18" width="8.3" height="-8.8"/>
	
		<rect id="rect31254" x="-288.3" y="-16" transform="matrix(-2.530682e-06 -1 1 -2.530682e-06 -263.7226 -304.5389)" class="st18" width="8.3" height="-8.8"/>
	
		<rect id="rect31256" x="-288.3" y="-20.1" transform="matrix(-2.530682e-06 -1 1 -2.530682e-06 -259.6732 -308.5883)" class="st18" width="8.3" height="-8.8"/>
	
		<rect id="rect31258" x="-288.3" y="-24.1" transform="matrix(-2.530682e-06 -1 1 -2.530682e-06 -255.6237 -312.6378)" class="st18" width="8.3" height="-8.8"/>
	
		<rect id="rect31260" x="-288.3" y="-28.2" transform="matrix(-2.530682e-06 -1 1 -2.530682e-06 -251.5742 -316.6873)" class="st18" width="8.3" height="-8.8"/>
	
		<rect id="rect31262" x="-288.3" y="-32.2" transform="matrix(-2.530682e-06 -1 1 -2.530682e-06 -247.5248 -320.7367)" class="st18" width="8.3" height="-8.8"/>
	
		<rect id="rect31264" x="-288.3" y="-36.3" transform="matrix(-2.530682e-06 -1 1 -2.530682e-06 -243.4754 -324.7862)" class="st18" width="8.3" height="-8.8"/>
	
		<rect id="rect31266" x="-288.3" y="-40.3" transform="matrix(-2.530682e-06 -1 1 -2.530682e-06 -239.4259 -328.8356)" class="st18" width="8.3" height="-8.8"/>
	
		<rect id="rect31268" x="-288.3" y="-44.3" transform="matrix(-2.530682e-06 -1 1 -2.530682e-06 -235.3765 -332.8851)" class="st18" width="8.3" height="-8.8"/>
	
		<rect id="rect31270" x="-288.3" y="-48.4" transform="matrix(-2.530682e-06 -1 1 -2.530682e-06 -231.327 -336.9345)" class="st18" width="8.3" height="-8.8"/>
	
		<rect id="rect31272" x="-288.3" y="-52.4" transform="matrix(-2.530682e-06 -1 1 -2.530682e-06 -227.2776 -340.984)" class="st18" width="8.3" height="-8.8"/>
</g>
<g id="g31342" transform="matrix(0.309871, -0.312886, 0.699672, 0.692928, -66.0795, 224.867)" inkscape:transform-center-x="189.14321" inkscape:transform-center-y="-189.12982">
	
		<rect id="rect31344" x="576.7" y="251.1" transform="matrix(-1 2.553821e-06 -2.553821e-06 -1 1173.4948 505.8648)" class="st18" width="20.1" height="3.6"/>
	
		<rect id="rect31346" x="576.7" y="247.1" transform="matrix(-1 2.553821e-06 -2.553821e-06 -1 1173.4948 497.7659)" class="st18" width="20.1" height="3.6"/>
	
		<rect id="rect31348" x="576.7" y="243" transform="matrix(-1 2.553821e-06 -2.553821e-06 -1 1173.4948 489.667)" class="st18" width="20.1" height="3.6"/>
	
		<rect id="rect31350" x="576.7" y="239" transform="matrix(-1 2.553821e-06 -2.553821e-06 -1 1173.4948 481.5681)" class="st18" width="20.1" height="3.6"/>
	
		<rect id="rect31352" x="576.7" y="234.9" transform="matrix(-1 2.553821e-06 -2.553821e-06 -1 1173.4948 473.4692)" class="st18" width="20.1" height="3.6"/>
	
		<rect id="rect31354" x="576.7" y="230.9" transform="matrix(-1 2.553821e-06 -2.553821e-06 -1 1173.4948 465.3703)" class="st18" width="20.1" height="3.6"/>
	
		<rect id="rect31356" x="576.7" y="226.8" transform="matrix(-1 2.553821e-06 -2.553821e-06 -1 1173.4948 457.2714)" class="st18" width="20.1" height="3.6"/>
	
		<rect id="rect31358" x="576.7" y="222.8" transform="matrix(-1 2.553821e-06 -2.553821e-06 -1 1173.4948 449.1725)" class="st18" width="20.1" height="3.6"/>
	
		<rect id="rect31360" x="576.7" y="218.7" transform="matrix(-1 2.553821e-06 -2.553821e-06 -1 1173.4948 441.0736)" class="st18" width="20.1" height="3.6"/>
	
		<rect id="rect31362" x="576.7" y="214.7" transform="matrix(-1 2.553821e-06 -2.553821e-06 -1 1173.4948 432.9747)" class="st18" width="20.1" height="3.6"/>
	
		<rect id="rect31364" x="576.7" y="210.6" transform="matrix(-1 2.553821e-06 -2.553821e-06 -1 1173.4946 424.8758)" class="st18" width="20.1" height="3.6"/>
	
		<rect id="rect31366" x="576.7" y="206.6" transform="matrix(-1 2.553821e-06 -2.553821e-06 -1 1173.4946 416.7769)" class="st18" width="20.1" height="3.6"/>
	
		<rect id="rect31368" x="576.7" y="202.5" transform="matrix(-1 2.553821e-06 -2.553821e-06 -1 1173.4946 408.678)" class="st18" width="20.1" height="3.6"/>
	
		<rect id="rect31370" x="576.7" y="198.5" transform="matrix(-1 2.553821e-06 -2.553821e-06 -1 1173.4946 400.5791)" class="st18" width="20.1" height="3.6"/>
	
		<rect id="rect31372" x="576.7" y="194.4" transform="matrix(-1 2.553821e-06 -2.553821e-06 -1 1173.4946 392.4802)" class="st18" width="20.1" height="3.6"/>
	
		<rect id="rect31374" x="576.7" y="190.4" transform="matrix(-1 2.553821e-06 -2.553821e-06 -1 1173.4946 384.3813)" class="st18" width="20.1" height="3.6"/>
</g>
<g id="g31444" transform="matrix(0.380436, -0.221778, 0.505026, 0.866315, -71.1947, 189.843)" inkscape:transform-center-x="83.805893" inkscape:transform-center-y="-146.11873">
	
		<rect id="rect31446" x="781.5" y="278.2" transform="matrix(-1 2.542031e-06 -2.542031e-06 -1 1583.0709 560.1366)" class="st18" width="20.1" height="3.6"/>
	
		<rect id="rect31448" x="781.5" y="274.2" transform="matrix(-1 2.542031e-06 -2.542031e-06 -1 1583.0709 552.0377)" class="st18" width="20.1" height="3.6"/>
	
		<rect id="rect31450" x="781.5" y="270.1" transform="matrix(-1 2.542031e-06 -2.542031e-06 -1 1583.0709 543.9388)" class="st18" width="20.1" height="3.6"/>
	
		<rect id="rect31452" x="781.5" y="266.1" transform="matrix(-1 2.542031e-06 -2.542031e-06 -1 1583.0709 535.8399)" class="st18" width="20.1" height="3.6"/>
	
		<rect id="rect31454" x="781.5" y="262" transform="matrix(-1 2.542031e-06 -2.542031e-06 -1 1583.0709 527.741)" class="st18" width="20.1" height="3.6"/>
	
		<rect id="rect31456" x="781.5" y="258" transform="matrix(-1 2.542031e-06 -2.542031e-06 -1 1583.0708 519.6421)" class="st18" width="20.1" height="3.6"/>
	
		<rect id="rect31458" x="781.5" y="253.9" transform="matrix(-1 2.542031e-06 -2.542031e-06 -1 1583.0708 511.5432)" class="st18" width="20.1" height="3.6"/>
	
		<rect id="rect31460" x="781.5" y="249.9" transform="matrix(-1 2.542031e-06 -2.542031e-06 -1 1583.0708 503.4443)" class="st18" width="20.1" height="3.6"/>
	
		<rect id="rect31462" x="781.5" y="245.8" transform="matrix(-1 2.542031e-06 -2.542031e-06 -1 1583.0708 495.3454)" class="st18" width="20.1" height="3.6"/>
	
		<rect id="rect31464" x="781.5" y="241.8" transform="matrix(-1 2.542031e-06 -2.542031e-06 -1 1583.0708 487.2465)" class="st18" width="20.1" height="3.6"/>
	
		<rect id="rect31466" x="781.5" y="237.8" transform="matrix(-1 2.542031e-06 -2.542031e-06 -1 1583.0708 479.1476)" class="st18" width="20.1" height="3.6"/>
	
		<rect id="rect31468" x="781.5" y="233.7" transform="matrix(-1 2.542031e-06 -2.542031e-06 -1 1583.0708 471.0487)" class="st18" width="20.1" height="3.6"/>
	
		<rect id="rect31470" x="781.5" y="229.7" transform="matrix(-1 2.542031e-06 -2.542031e-06 -1 1583.0708 462.9498)" class="st18" width="20.1" height="3.6"/>
	
		<rect id="rect31472" x="781.5" y="225.6" transform="matrix(-1 2.542031e-06 -2.542031e-06 -1 1583.0708 454.8509)" class="st18" width="20.1" height="3.6"/>
	
		<rect id="rect31474" x="781.5" y="221.6" transform="matrix(-1 2.542031e-06 -2.542031e-06 -1 1583.0708 446.752)" class="st18" width="20.1" height="3.6"/>
	
		<rect id="rect31476" x="781.5" y="217.5" transform="matrix(-1 2.542031e-06 -2.542031e-06 -1 1583.0708 438.6531)" class="st18" width="20.1" height="3.6"/>
</g>
<path id="path9192" sodipodi:nodetypes="ccccccccc" class="st19" d="M661.9,288.2l-61.3,16.2l2.8,13.6l1.6,14.2l1.1,11l63.4,0
	l-1.1-19l-2.8-20L661.9,288.2z"/>
<path id="path9190" class="st19" d="M639.1,229.8L583.9,261l5.5,11.2l5.2,13.3l3.8,10.4l61.3-16.2l-5.9-18.1L646,243L639.1,229.8z"
	/>
<path id="path9184" sodipodi:nodetypes="cccccccccccccccccccccccccc" class="st1" d="M322.2,368.3l-1.8-14.8l0.5-17l2.7-14.3
	l5.9-17.2l10.7-17.2l10.5-12.4l15.1-12.9l21.3-10.7l16.3-4.8l20.9-1.6l8.9,12.8l-9.1-1l-14.6,1.2l-15.5,3.9l-14.9,7.1l-9.5,6
	l-13.2,13.7l-7.6,11l-7.3,16.1l-3,12.7l-0.8,9l0,11.1l0.9,7.5l1.3,7L322.2,368.3z"/>
<path id="path8209" sodipodi:nodetypes="ccccccccccccccccccccccccc" class="st20" d="M248.3,393.9l-4.5-23.5l-1-28.1l2.5-25.3
	l6.6-29.6l11.6-25.9l10.8-18.1l15.2-20.3l18.7-17.7l27.6-18.9l6.9,12.7l-10.5,7.2l-7.2,4.8l-14.3,10.8l-13.2,15.4l-6.9,8.1
	l-13.1,20.8l-9,18.2l-7.4,25.5l-3.6,20.8l-0.2,16.9l0,16.9l2.3,14l2,11.1L248.3,393.9z"/>
<path id="path6237" class="st21" d="M167.3,417.7l-6.3-30.6l-3.3-36l1.8-32.7l7.7-42.4l12.2-30.9l11.9-25.2l17.9-28.5l23.2-27.2
	l15.7-15.7l22.8-17.9l12.6,15.7l-20.8,15.9l-9.6,7.9l-15.8,17.8l-14.8,20.8l-9.6,12.2l-14.5,29.1l-8.4,23.4l-8.8,34.9l-2.4,27
	l-0.2,20.6l1.3,23l3.3,17.7l3.6,15.3L167.3,417.7z"/>
<path id="path7587" sodipodi:cx="120.2316" sodipodi:cy="126.20222" sodipodi:end="6.508985" sodipodi:open="true" sodipodi:rx="63.119129" sodipodi:ry="63.119129" sodipodi:start="2.9406581" sodipodi:type="arc" class="st22" d="
	M322.4,365.9c-11.4-53.5,24.8-105.7,80.8-116.6c56.1-10.9,110.7,23.6,122.2,77.1c3,13.8,2.8,28.1-0.5,41.9"/>
<path id="path7589" sodipodi:cx="120.2316" sodipodi:cy="126.20222" sodipodi:end="6.6102895" sodipodi:open="true" sodipodi:rx="63.119129" sodipodi:ry="63.119129" sodipodi:start="2.8106131" sodipodi:type="arc" class="st23" d="
	M345.9,369c-14.7-42.7,8-89.2,50.7-103.8c42.7-14.7,89.2,8,103.8,50.7c5.9,17.1,5.9,35.7,0.1,52.8"/>
<g id="g26597" transform="matrix(-0.117565, -0.424377, 0.948986, -0.262898, 130.751, 358.671)">
	
		<rect id="rect26599" x="-143.5" y="97.5" transform="matrix(-2.535458e-06 -1 1 -2.535458e-06 -241.34 -37.4185)" class="st18" width="8.2" height="9"/>
	
		<rect id="rect26601" x="-143.5" y="93.4" transform="matrix(-2.535458e-06 -1 1 -2.535458e-06 -237.2905 -41.468)" class="st18" width="8.2" height="9"/>
	
		<rect id="rect26603" x="-143.5" y="89.4" transform="matrix(-2.535458e-06 -1 1 -2.535458e-06 -233.2411 -45.5175)" class="st18" width="8.2" height="9"/>
	
		<rect id="rect26605" x="-143.5" y="85.3" transform="matrix(-2.535458e-06 -1 1 -2.535458e-06 -229.1916 -49.5669)" class="st18" width="8.2" height="9"/>
	
		<rect id="rect26607" x="-143.5" y="81.3" transform="matrix(-2.535458e-06 -1 1 -2.535458e-06 -225.1422 -53.6164)" class="st18" width="8.2" height="9"/>
	
		<rect id="rect26609" x="-143.5" y="77.2" transform="matrix(-2.535458e-06 -1 1 -2.535458e-06 -221.0927 -57.6658)" class="st18" width="8.2" height="9"/>
	
		<rect id="rect26611" x="-143.5" y="73.2" transform="matrix(-2.535458e-06 -1 1 -2.535458e-06 -217.0433 -61.7153)" class="st18" width="8.2" height="9"/>
	
		<rect id="rect26613" x="-143.5" y="69.1" transform="matrix(-2.535458e-06 -1 1 -2.535458e-06 -212.9938 -65.7648)" class="st18" width="8.2" height="9"/>
	
		<rect id="rect26615" x="-143.5" y="65.1" transform="matrix(-2.535458e-06 -1 1 -2.535458e-06 -208.9444 -69.8142)" class="st18" width="8.2" height="9"/>
	
		<rect id="rect26617" x="-143.5" y="61" transform="matrix(-2.535458e-06 -1 1 -2.535458e-06 -204.8949 -73.8637)" class="st18" width="8.2" height="9"/>
	
		<rect id="rect26619" x="-143.5" y="57" transform="matrix(-2.535458e-06 -1 1 -2.535458e-06 -200.8455 -77.9131)" class="st18" width="8.2" height="9"/>
	
		<rect id="rect26621" x="-143.5" y="52.9" transform="matrix(-2.535458e-06 -1 1 -2.535458e-06 -196.796 -81.9626)" class="st18" width="8.2" height="9"/>
	
		<rect id="rect26623" x="-143.5" y="48.9" transform="matrix(-2.535458e-06 -1 1 -2.535458e-06 -192.7466 -86.0121)" class="st18" width="8.2" height="9"/>
	
		<rect id="rect26625" x="-143.5" y="44.8" transform="matrix(-2.535458e-06 -1 1 -2.535458e-06 -188.6971 -90.0615)" class="st18" width="8.2" height="9"/>
	
		<rect id="rect26627" x="-143.5" y="40.8" transform="matrix(-2.535458e-06 -1 1 -2.535458e-06 -184.6477 -94.111)" class="st18" width="8.2" height="9"/>
	
		<rect id="rect26629" x="-143.5" y="36.7" transform="matrix(-2.535458e-06 -1 1 -2.535458e-06 -180.5982 -98.1604)" class="st18" width="8.2" height="9"/>
</g>
<g id="g3967" transform="matrix(0.440361, 0, 0, 0.984729, -75.3258, 41.9018)">
	<rect id="rect3935" x="1122.3" y="121.8" class="st18" width="20.1" height="3.6"/>
	<rect id="rect3937" x="1122.3" y="117.8" class="st18" width="20.1" height="3.6"/>
	<rect id="rect3939" x="1122.3" y="113.7" class="st18" width="20.1" height="3.6"/>
	<rect id="rect3941" x="1122.3" y="109.7" class="st18" width="20.1" height="3.6"/>
	<rect id="rect3943" x="1122.3" y="105.6" class="st18" width="20.1" height="3.6"/>
	<rect id="rect3945" x="1122.3" y="101.6" class="st18" width="20.1" height="3.6"/>
	<rect id="rect3947" x="1122.3" y="97.5" class="st18" width="20.1" height="3.6"/>
	<rect id="rect3949" x="1122.3" y="93.5" class="st18" width="20.1" height="3.6"/>
	<rect id="rect3951" x="1122.3" y="89.4" class="st18" width="20.1" height="3.6"/>
	<rect id="rect3953" x="1122.3" y="85.4" class="st18" width="20.1" height="3.6"/>
	<rect id="rect3955" x="1122.3" y="81.4" class="st18" width="20.1" height="3.6"/>
	<rect id="rect3957" x="1122.3" y="77.3" class="st18" width="20.1" height="3.6"/>
	<rect id="rect3959" x="1122.3" y="73.3" class="st18" width="20.1" height="3.6"/>
	<rect id="rect3961" x="1122.3" y="69.2" class="st18" width="20.1" height="3.6"/>
	<rect id="rect3963" x="1122.3" y="65.2" class="st18" width="20.1" height="3.6"/>
	<rect id="rect3965" x="1122.3" y="61.1" class="st18" width="20.1" height="3.6"/>
</g>
<g id="g31138" transform="matrix(-0.30927, -0.31348, -0.700999, 0.691586, 364.45, 225.634)" inkscape:transform-center-x="-189.50557" inkscape:transform-center-y="-188.76674">
	
		<rect id="rect31140" x="-293.5" y="-138" transform="matrix(-2.542606e-06 -1 1 -2.542606e-06 -146.9198 -431.9702)" class="st18" width="8.2" height="-9"/>
	
		<rect id="rect31142" x="-293.5" y="-142.1" transform="matrix(-2.542606e-06 -1 1 -2.542606e-06 -142.8704 -436.0197)" class="st18" width="8.2" height="-9"/>
	
		<rect id="rect31144" x="-293.5" y="-146.1" transform="matrix(-2.542606e-06 -1 1 -2.542606e-06 -138.8209 -440.0692)" class="st18" width="8.2" height="-9"/>
	
		<rect id="rect31146" x="-293.5" y="-150.2" transform="matrix(-2.542606e-06 -1 1 -2.542606e-06 -134.7715 -444.1186)" class="st18" width="8.2" height="-9"/>
	
		<rect id="rect31148" x="-293.5" y="-154.2" transform="matrix(-2.542606e-06 -1 1 -2.542606e-06 -130.722 -448.1681)" class="st18" width="8.2" height="-9"/>
	
		<rect id="rect31150" x="-293.5" y="-158.3" transform="matrix(-2.542606e-06 -1 1 -2.542606e-06 -126.6726 -452.2175)" class="st18" width="8.2" height="-9"/>
	
		<rect id="rect31152" x="-293.5" y="-162.3" transform="matrix(-2.542606e-06 -1 1 -2.542606e-06 -122.6231 -456.267)" class="st18" width="8.2" height="-9"/>
	
		<rect id="rect31154" x="-293.5" y="-166.4" transform="matrix(-2.542606e-06 -1 1 -2.542606e-06 -118.5737 -460.3164)" class="st18" width="8.2" height="-9"/>
	
		<rect id="rect31156" x="-293.5" y="-170.4" transform="matrix(-2.542606e-06 -1 1 -2.542606e-06 -114.5242 -464.3659)" class="st18" width="8.2" height="-9"/>
	
		<rect id="rect31158" x="-293.5" y="-174.5" transform="matrix(-2.542606e-06 -1 1 -2.542606e-06 -110.4748 -468.4154)" class="st18" width="8.2" height="-9"/>
	
		<rect id="rect31160" x="-293.5" y="-178.5" transform="matrix(-2.542606e-06 -1 1 -2.542606e-06 -106.4253 -472.4648)" class="st18" width="8.2" height="-9"/>
	
		<rect id="rect31162" x="-293.5" y="-182.6" transform="matrix(-2.542606e-06 -1 1 -2.542606e-06 -102.3759 -476.5143)" class="st18" width="8.2" height="-9"/>
	
		<rect id="rect31164" x="-293.5" y="-186.6" transform="matrix(-2.542606e-06 -1 1 -2.542606e-06 -98.3264 -480.5638)" class="st18" width="8.2" height="-9"/>
	
		<rect id="rect31166" x="-293.5" y="-190.7" transform="matrix(-2.542606e-06 -1 1 -2.542606e-06 -94.277 -484.6132)" class="st18" width="8.2" height="-9"/>
	
		<rect id="rect31168" x="-293.5" y="-194.7" transform="matrix(-2.542606e-06 -1 1 -2.542606e-06 -90.2275 -488.6627)" class="st18" width="8.2" height="-9"/>
	
		<rect id="rect31170" x="-293.5" y="-198.8" transform="matrix(-2.542606e-06 -1 1 -2.542606e-06 -86.1781 -492.7121)" class="st18" width="8.2" height="-9"/>
</g>
<g id="g31206" transform="matrix(-0.379712, -0.223016, -0.498705, 0.849108, 383.735, 166.635)" inkscape:transform-center-x="-134.3518" inkscape:transform-center-y="-231.28943">
	
		<rect id="rect31208" x="-288.1" y="-44.3" transform="matrix(-2.530682e-06 -1 1 -2.530682e-06 -235.2467 -332.7841)" class="st18" width="8.2" height="-9"/>
	
		<rect id="rect31210" x="-288.1" y="-48.3" transform="matrix(-2.530682e-06 -1 1 -2.530682e-06 -231.1972 -336.8336)" class="st18" width="8.2" height="-9"/>
	
		<rect id="rect31212" x="-288.1" y="-52.4" transform="matrix(-2.530682e-06 -1 1 -2.530682e-06 -227.1478 -340.883)" class="st18" width="8.2" height="-9"/>
	
		<rect id="rect31214" x="-288.1" y="-56.4" transform="matrix(-2.530682e-06 -1 1 -2.530682e-06 -223.0983 -344.9325)" class="st18" width="8.2" height="-9"/>
	
		<rect id="rect31216" x="-288.1" y="-60.5" transform="matrix(-2.530682e-06 -1 1 -2.530682e-06 -219.0489 -348.9819)" class="st18" width="8.2" height="-9"/>
	
		<rect id="rect31218" x="-288.1" y="-64.5" transform="matrix(-2.530682e-06 -1 1 -2.530682e-06 -214.9994 -353.0314)" class="st18" width="8.2" height="-9"/>
	
		<rect id="rect31220" x="-288.1" y="-68.6" transform="matrix(-2.530682e-06 -1 1 -2.530682e-06 -210.95 -357.0808)" class="st18" width="8.2" height="-9"/>
	
		<rect id="rect31222" x="-288.1" y="-72.6" transform="matrix(-2.530682e-06 -1 1 -2.530682e-06 -206.9005 -361.1303)" class="st18" width="8.2" height="-9"/>
	
		<rect id="rect31224" x="-288.1" y="-76.7" transform="matrix(-2.530682e-06 -1 1 -2.530682e-06 -202.8511 -365.1798)" class="st18" width="8.2" height="-9"/>
	
		<rect id="rect31226" x="-288.1" y="-80.7" transform="matrix(-2.530682e-06 -1 1 -2.530682e-06 -198.8016 -369.2292)" class="st18" width="8.2" height="-9"/>
	
		<rect id="rect31228" x="-288.1" y="-84.8" transform="matrix(-2.530682e-06 -1 1 -2.530682e-06 -194.7522 -373.2787)" class="st18" width="8.2" height="-9"/>
	
		<rect id="rect31230" x="-288.1" y="-88.8" transform="matrix(-2.530682e-06 -1 1 -2.530682e-06 -190.7027 -377.3282)" class="st18" width="8.2" height="-9"/>
	
		<rect id="rect31232" x="-288.1" y="-92.9" transform="matrix(-2.530682e-06 -1 1 -2.530682e-06 -186.6533 -381.3776)" class="st18" width="8.2" height="-9"/>
	
		<rect id="rect31234" x="-288.1" y="-96.9" transform="matrix(-2.530682e-06 -1 1 -2.530682e-06 -182.6038 -385.4271)" class="st18" width="8.2" height="-9"/>
	
		<rect id="rect31236" x="-288.1" y="-101" transform="matrix(-2.530682e-06 -1 1 -2.530682e-06 -178.5544 -389.4765)" class="st18" width="8.2" height="-9"/>
	
		<rect id="rect31238" x="-288.1" y="-105" transform="matrix(-2.530682e-06 -1 1 -2.530682e-06 -174.5049 -393.526)" class="st18" width="8.2" height="-9"/>
</g>
<g id="g31274" transform="matrix(-0.424715, -0.11634, -0.260158, 0.949741, 387.087, 104.047)" inkscape:transform-center-x="-69.42532" inkscape:transform-center-y="-258.31245">
	
		<rect id="rect31276" x="-227.9" y="46.5" transform="matrix(-2.550328e-06 -1 1 -2.550328e-06 -265.831 -181.7605)" class="st18" width="8.2" height="-9"/>
	
		<rect id="rect31278" x="-227.9" y="42.5" transform="matrix(-2.550328e-06 -1 1 -2.550328e-06 -261.7816 -185.81)" class="st18" width="8.2" height="-9"/>
	
		<rect id="rect31280" x="-227.9" y="38.4" transform="matrix(-2.550328e-06 -1 1 -2.550328e-06 -257.7321 -189.8595)" class="st18" width="8.2" height="-9"/>
	
		<rect id="rect31282" x="-227.9" y="34.4" transform="matrix(-2.550328e-06 -1 1 -2.550328e-06 -253.6827 -193.9089)" class="st18" width="8.2" height="-9"/>
	
		<rect id="rect31284" x="-227.9" y="30.3" transform="matrix(-2.550328e-06 -1 1 -2.550328e-06 -249.6332 -197.9584)" class="st18" width="8.2" height="-9"/>
	
		<rect id="rect31286" x="-227.9" y="26.3" transform="matrix(-2.550328e-06 -1 1 -2.550328e-06 -245.5838 -202.0078)" class="st18" width="8.2" height="-9"/>
	
		<rect id="rect31288" x="-227.9" y="22.2" transform="matrix(-2.550328e-06 -1 1 -2.550328e-06 -241.5343 -206.0573)" class="st18" width="8.2" height="-9"/>
	
		<rect id="rect31290" x="-227.9" y="18.2" transform="matrix(-2.550328e-06 -1 1 -2.550328e-06 -237.4849 -210.1068)" class="st18" width="8.2" height="-9"/>
	
		<rect id="rect31292" x="-227.9" y="14.1" transform="matrix(-2.550328e-06 -1 1 -2.550328e-06 -233.4354 -214.1562)" class="st18" width="8.2" height="-9"/>
	
		<rect id="rect31294" x="-227.9" y="10.1" transform="matrix(-2.550328e-06 -1 1 -2.550328e-06 -229.386 -218.2057)" class="st18" width="8.2" height="-9"/>
	
		<rect id="rect31296" x="-227.9" y="6" transform="matrix(-2.550328e-06 -1 1 -2.550328e-06 -225.3365 -222.2551)" class="st18" width="8.2" height="-9"/>
	
		<rect id="rect31298" x="-227.9" y="2" transform="matrix(-2.550328e-06 -1 1 -2.550328e-06 -221.2871 -226.3046)" class="st18" width="8.2" height="-9"/>
	
		<rect id="rect31300" x="-227.9" y="-2.1" transform="matrix(-2.550328e-06 -1 1 -2.550328e-06 -217.2376 -230.354)" class="st18" width="8.2" height="-9"/>
	
		<rect id="rect31302" x="-227.9" y="-6.1" transform="matrix(-2.550328e-06 -1 1 -2.550328e-06 -213.1882 -234.4035)" class="st18" width="8.2" height="-9"/>
	
		<rect id="rect31304" x="-227.9" y="-10.2" transform="matrix(-2.550328e-06 -1 1 -2.550328e-06 -209.1387 -238.453)" class="st18" width="8.2" height="-9"/>
	
		<rect id="rect31306" x="-227.9" y="-14.2" transform="matrix(-2.550328e-06 -1 1 -2.550328e-06 -205.0893 -242.5024)" class="st18" width="8.2" height="-9"/>
</g>
<g id="g31410" transform="matrix(0.380436, -0.221778, 0.495938, 0.850726, -85.1983, 165.656)" inkscape:transform-center-x="133.59804" inkscape:transform-center-y="-231.72563">
	
		<rect id="rect31412" x="781.9" y="230.5" transform="matrix(-1 2.542031e-06 -2.542031e-06 -1 1583.7651 464.5889)" class="st18" width="20.1" height="3.6"/>
	
		<rect id="rect31414" x="781.9" y="226.4" transform="matrix(-1 2.542031e-06 -2.542031e-06 -1 1583.765 456.49)" class="st18" width="20.1" height="3.6"/>
	
		<rect id="rect31416" x="781.9" y="222.4" transform="matrix(-1 2.542031e-06 -2.542031e-06 -1 1583.765 448.3911)" class="st18" width="20.1" height="3.6"/>
	
		<rect id="rect31418" x="781.9" y="218.3" transform="matrix(-1 2.542031e-06 -2.542031e-06 -1 1583.765 440.2921)" class="st18" width="20.1" height="3.6"/>
	
		<rect id="rect31420" x="781.9" y="214.3" transform="matrix(-1 2.542031e-06 -2.542031e-06 -1 1583.765 432.1932)" class="st18" width="20.1" height="3.6"/>
	
		<rect id="rect31422" x="781.9" y="210.2" transform="matrix(-1 2.542031e-06 -2.542031e-06 -1 1583.765 424.0943)" class="st18" width="20.1" height="3.6"/>
	
		<rect id="rect31424" x="781.9" y="206.2" transform="matrix(-1 2.542031e-06 -2.542031e-06 -1 1583.765 415.9954)" class="st18" width="20.1" height="3.6"/>
	
		<rect id="rect31426" x="781.9" y="202.1" transform="matrix(-1 2.542031e-06 -2.542031e-06 -1 1583.765 407.8965)" class="st18" width="20.1" height="3.6"/>
	
		<rect id="rect31428" x="781.9" y="198.1" transform="matrix(-1 2.542031e-06 -2.542031e-06 -1 1583.765 399.7976)" class="st18" width="20.1" height="3.6"/>
	
		<rect id="rect31430" x="781.9" y="194" transform="matrix(-1 2.542031e-06 -2.542031e-06 -1 1583.765 391.6987)" class="st18" width="20.1" height="3.6"/>
	
		<rect id="rect31432" x="781.9" y="190" transform="matrix(-1 2.542031e-06 -2.542031e-06 -1 1583.765 383.5999)" class="st18" width="20.1" height="3.6"/>
	
		<rect id="rect31434" x="781.9" y="185.9" transform="matrix(-1 2.542031e-06 -2.542031e-06 -1 1583.765 375.5009)" class="st18" width="20.1" height="3.6"/>
	
		<rect id="rect31436" x="781.9" y="181.9" transform="matrix(-1 2.542031e-06 -2.542031e-06 -1 1583.765 367.4021)" class="st18" width="20.1" height="3.6"/>
	
		<rect id="rect31438" x="781.9" y="177.8" transform="matrix(-1 2.542031e-06 -2.542031e-06 -1 1583.7649 359.3032)" class="st18" width="20.1" height="3.6"/>
	
		<rect id="rect31440" x="781.9" y="173.8" transform="matrix(-1 2.542031e-06 -2.542031e-06 -1 1583.7649 351.2043)" class="st18" width="20.1" height="3.6"/>
	
		<rect id="rect31442" x="781.9" y="169.7" transform="matrix(-1 2.542031e-06 -2.542031e-06 -1 1583.7649 343.1053)" class="st18" width="20.1" height="3.6"/>
</g>
<g id="g31478" transform="matrix(0.425152, -0.114731, 0.25656, 0.950719, -88.4472, 103.105)" inkscape:transform-center-x="68.446438" inkscape:transform-center-y="-258.57362">
	
		<rect id="rect31480" x="968.4" y="186.3" transform="matrix(-1 2.530485e-06 -2.530485e-06 -1 1956.8805 376.2585)" class="st18" width="20.1" height="3.6"/>
	
		<rect id="rect31482" x="968.4" y="182.3" transform="matrix(-1 2.530485e-06 -2.530485e-06 -1 1956.8805 368.1596)" class="st18" width="20.1" height="3.6"/>
	
		<rect id="rect31484" x="968.4" y="178.2" transform="matrix(-1 2.530485e-06 -2.530485e-06 -1 1956.8805 360.0607)" class="st18" width="20.1" height="3.6"/>
	
		<rect id="rect31486" x="968.4" y="174.2" transform="matrix(-1 2.530485e-06 -2.530485e-06 -1 1956.8805 351.9618)" class="st18" width="20.1" height="3.6"/>
	
		<rect id="rect31488" x="968.4" y="170.1" transform="matrix(-1 2.530485e-06 -2.530485e-06 -1 1956.8805 343.8629)" class="st18" width="20.1" height="3.6"/>
	
		<rect id="rect31490" x="968.4" y="166.1" transform="matrix(-1 2.530485e-06 -2.530485e-06 -1 1956.8805 335.764)" class="st18" width="20.1" height="3.6"/>
	
		<rect id="rect31492" x="968.4" y="162" transform="matrix(-1 2.530485e-06 -2.530485e-06 -1 1956.8805 327.6651)" class="st18" width="20.1" height="3.6"/>
	
		<rect id="rect31494" x="968.4" y="158" transform="matrix(-1 2.530485e-06 -2.530485e-06 -1 1956.8805 319.5662)" class="st18" width="20.1" height="3.6"/>
	
		<rect id="rect31496" x="968.4" y="153.9" transform="matrix(-1 2.530485e-06 -2.530485e-06 -1 1956.8805 311.4673)" class="st18" width="20.1" height="3.6"/>
	
		<rect id="rect31498" x="968.4" y="149.9" transform="matrix(-1 2.530485e-06 -2.530485e-06 -1 1956.8805 303.3684)" class="st18" width="20.1" height="3.6"/>
	
		<rect id="rect31500" x="968.4" y="145.8" transform="matrix(-1 2.530485e-06 -2.530485e-06 -1 1956.8805 295.2695)" class="st18" width="20.1" height="3.6"/>
	
		<rect id="rect31502" x="968.4" y="141.8" transform="matrix(-1 2.530485e-06 -2.530485e-06 -1 1956.8805 287.1706)" class="st18" width="20.1" height="3.6"/>
	
		<rect id="rect31504" x="968.4" y="137.7" transform="matrix(-1 2.530485e-06 -2.530485e-06 -1 1956.8804 279.0717)" class="st18" width="20.1" height="3.6"/>
	
		<rect id="rect31506" x="968.4" y="133.7" transform="matrix(-1 2.530485e-06 -2.530485e-06 -1 1956.8804 270.9728)" class="st18" width="20.1" height="3.6"/>
	
		<rect id="rect31508" x="968.4" y="129.6" transform="matrix(-1 2.530485e-06 -2.530485e-06 -1 1956.8804 262.8739)" class="st18" width="20.1" height="3.6"/>
	
		<rect id="rect31510" x="968.4" y="125.6" transform="matrix(-1 2.530485e-06 -2.530485e-06 -1 1956.8804 254.775)" class="st18" width="20.1" height="3.6"/>
</g>
<path id="path31722" sodipodi:nodetypes="cc" class="st24" d="M348.1,365.2L167,418.9"/>
<path id="path31722_1_" sodipodi:nodetypes="cc" class="st24" d="M681.7,420.2c-53.5-15.2-106.9-30.4-160.4-45.6
	c-7.6-2.2-15.2-4.3-22.8-6.5"/>
<path id="path6237_1_" class="st20" d="M662,413.2l3.6-15.3l3.3-17.7l1.3-23l-0.2-20.6l-2.4-27l-8.8-34.9l-8.4-23.4L636,222.3
	l-9.6-12.2l-14.8-20.8l-15.8-17.8l-9.6-7.9l-20.8-15.9l12.6-15.7l22.8,17.9l15.7,15.7l23.2,27.2l17.9,28.5l11.9,25.2l12.2,30.9
	l7.7,42.4l1.8,32.7l-3.3,36l-6.3,30.6L662,413.2z"/>
<path id="path6237_2_" class="st20" d="M566.8,148.1l-13.3-8.7l-15.7-9.2l-21.4-9.2l-19.6-6.9l-26.4-7l-36.2-3.7l-25.1-0.2
	l-32.6,3.6l-14.9,4.8l-24.8,6.8l-22.3,8.8l-10.7,6.3l-22.2,14.1L271,130.5l24.8-15.2l20.3-9.4l33.7-12.5l33.2-7l28-2.6l33.5-0.8
	l43,7.3l31.7,9.6l33.1,15.5l26.9,16.5L566.8,148.1z"/>
<path id="path8209_2_" sodipodi:nodetypes="ccccccccccccccccccccccccc" class="st20" d="M583.3,391.4l2.5-10.7l2.9-13.5l0.7-16.5
	l0.5-16.4l-2.7-20.4l-6.4-25.1l-8.2-18.1l-12.2-20.8l-6.6-8.2l-12.5-15.6l-13.8-11.2l-7-5l-10.2-7.5l7.4-12l26.8,19.6l18,18
	l14.4,20.5l10.1,18.1l10.5,25.7l5.4,29.1l1.5,24.7l-2.1,27.3l-5.4,22.6L583.3,391.4z"/>
<path id="path8209_1_" sodipodi:nodetypes="ccccccccccccccccccccccccc" class="st20" d="M334.8,186.9l20.1-10.6l25.3-8.4l23.8-4.3
	l28.9-1.6l26.9,4.2l19.6,5.5l22.9,9.2l21.4,13.2l25,21.5l-9.6,10l-9.5-8.1l-6.4-5.6l-13.9-10.8l-17.8-8.5l-9.4-4.5l-22.7-7
	l-19.1-3.7L415,177l-20,2.1l-15.4,4.4l-15.4,4.6l-12.1,6l-9.5,4.9L334.8,186.9z"/>
<g>
	<g>
		<path class="st25" d="M427,463.2c0.6,14.9,1.2,29.9,1.9,44.8"/>
		<g>
			<path class="st26" d="M427.1,465.9l5.5,3.1l0.1-0.2l-3.9-8.7c-0.8-3-1.6-6.1-2.4-9.1c-0.5,3.1-1.1,6.2-1.6,9.3l-3.1,8.9l0.1,0.2
				L427.1,465.9z"/>
		</g>
	</g>
</g>
<g>
	<g>
		<path class="st25" d="M440,115.5c-0.1-19.5-0.2-39-0.3-58.5"/>
		<g>
			<path class="st26" d="M440,112.8l-5.4-3.3l-0.1,0.2l3.5,8.8c0.7,3.1,1.4,6.1,2.1,9.2c0.7-3.1,1.3-6.1,2-9.2l3.5-8.8l-0.1-0.2
				L440,112.8z"/>
		</g>
	</g>
</g>
<g>
	<g>
		<path class="st25" d="M296.6,390.9c-12.2,16.6-24.4,33.2-36.6,49.8"/>
		<g>
			<path class="st26" d="M295,393.1l2.4,5.8l0.2-0.1l2.4-9.2c1.3-2.9,2.5-5.7,3.8-8.6c-2.4,2.1-4.7,4.1-7.1,6.2l-8,5l0,0.2
				L295,393.1z"/>
		</g>
	</g>
</g>
<g>
	<g>
		<path class="st25" d="M558.8,398c12.5,16.3,25.1,32.7,37.6,49"/>
		<g>
			<path class="st26" d="M560.5,400.2l6.3-0.7l0-0.2l-8.1-4.9c-2.4-2-4.8-4.1-7.2-6.1c1.3,2.8,2.7,5.7,4,8.5l2.6,9.1l0.2,0.1
				L560.5,400.2z"/>
		</g>
	</g>
</g>
</svg>
