<?xml version="1.0" encoding="utf-8"?>
<!-- Generator: Adobe Illustrator 24.1.1, SVG Export Plug-In . SVG Version: 6.00 Build 0)  -->
<svg version="1.1" xmlns="http://www.w3.org/2000/svg" xmlns:xlink="http://www.w3.org/1999/xlink" x="0px" y="0px"
	 viewBox="0 0 841.9 595.3" style="enable-background:new 0 0 841.9 595.3;" xml:space="preserve">
<style type="text/css">
	.st0{display:none;}
	.st1{display:inline;fill:#222650;stroke:#000000;stroke-width:0.25;stroke-miterlimit:10;}
	.st2{fill:none;stroke:#FFFFFF;stroke-width:0.25;stroke-miterlimit:10;}
</style>
<g id="Capa_2" class="st0">
	<rect x="341.9" y="203.7" class="st1" width="231.3" height="196"/>
</g>
<g id="Capa_1">
</g>
<g id="Capa_3">
	<polygon class="st2" points="459.5,275.9 459.5,271.9 458.5,271.9 457.5,248 458.3,244.9 459.5,244.9 459.5,238.9 461.5,238.9 
		461.5,233.3 431.5,219.8 401.5,233.3 401.5,238.9 403.5,238.9 403.5,244.9 404.7,244.9 405.5,248 404.5,271.9 403.5,271.9 
		403.5,275.9 400.5,275.9 400.5,281.9 462.5,281.9 462.5,275.9 	"/>
	<polygon class="st2" points="403.5,234.8 431.5,222.3 459.5,234.9 459.5,237.2 403.5,237.2 	"/>
	<rect x="405.5" y="239.2" class="st2" width="52" height="4"/>
	<g>
		<path class="st2" d="M453.8,245.4h2.4l-0.5,2h-1.4L453.8,245.4z M454.5,272.4v-23h1l1,23H454.5z M452.5,248.5v23.9h-2l-1-23.9
			l0.8-3.1h1.4L452.5,248.5z M414.8,245.4h2.4l-0.5,2h-1.4L414.8,245.4z M414.5,272.4l1-23h1v23H414.5z M418.5,248.5l0.8-3.1h1.4
			l0.8,3.1l-1,23.9h-2V248.5z M437.8,245.4h2.4l-0.5,2h-1.4L437.8,245.4z M429.8,245.4h3.4l-0.5,2h-2.4L429.8,245.4z M422.8,245.4
			h2.4l-0.5,2h-1.4L422.8,245.4z M422.5,272.4l1-23h1v23H422.5z M426.5,248.5l0.8-3.1h0.4l0.8,3.1v23.9h-2V248.5z M430.5,272.4v-23
			h2v23H430.5z M434.5,248.5l0.8-3.1h0.4l0.8,3.1v23.9h-2V248.5z M438.5,272.4v-23h1l1,23H438.5z M441.5,248.5l0.8-3.1h1.4l0.8,3.1
			v23.9h-2L441.5,248.5z M445.8,245.4h2.4l-0.5,2h-1.4L445.8,245.4z M446.5,272.4v-23h1l1,23H446.5z M412.7,245.4l0.8,3.1l-1,23.9
			h-2v-23.9l0.8-3.1H412.7z M406.8,245.4h2.4l-0.5,2h-1.4L406.8,245.4z M407.5,249.4h1v23h-2L407.5,249.4z M405.5,274.4h5l0,0h2l0,0
			h6l0,0h2l0,0h6l0,0h2l0,0h6l0,0h2l0,0h6l0,0h2l0,0h6l0,0h2l0,0h5v2h-52V274.4z M460.5,280.4h-58v-2h1h56h1V280.4z"/>
		<path class="st2" d="M408.8,235.4h45.4l-22.7-10.1L408.8,235.4z M418.2,233.4l13.3-5.9l13.3,5.9H418.2z"/>
		<rect x="446" y="240.4" class="st2" width="2" height="2"/>
		<rect x="450" y="240.4" class="st2" width="2" height="2"/>
		<rect x="454" y="240.4" class="st2" width="2" height="2"/>
		<rect x="407" y="240.4" class="st2" width="2" height="2"/>
		<rect x="411" y="240.4" class="st2" width="2" height="2"/>
		<rect x="415" y="240.4" class="st2" width="2" height="2"/>
		<rect x="419" y="240.4" class="st2" width="2" height="2"/>
		<rect x="423" y="240.4" class="st2" width="2" height="2"/>
		<rect x="427" y="240.4" class="st2" width="2" height="2"/>
		<rect x="434.2" y="240.4" class="st2" width="2" height="2"/>
		<rect x="438" y="240.4" class="st2" width="2" height="2"/>
		<rect x="442" y="240.4" class="st2" width="2" height="2"/>
		<rect x="430.5" y="240.4" class="st2" width="2" height="2"/>
	</g>
</g>
</svg>
