<?xml version="1.0" encoding="utf-8"?>
<!-- Generator: Adobe Illustrator 24.1.1, SVG Export Plug-In . SVG Version: 6.00 Build 0)  -->
<svg version="1.1" id="Capa_1" xmlns="http://www.w3.org/2000/svg" xmlns:xlink="http://www.w3.org/1999/xlink" x="0px" y="0px"
	 viewBox="0 0 841.9 595.3" style="enable-background:new 0 0 841.9 595.3;" xml:space="preserve">
<style type="text/css">
	.st0{display:none;}
	.st1{display:inline;fill:#222650;stroke:#000000;stroke-width:0.25;stroke-miterlimit:10;}
	.st2{fill:none;stroke:#605455;stroke-width:0.5;stroke-miterlimit:10;}
</style>
<g id="Capa_2_1_" class="st0">
	<rect x="341.9" y="203.7" class="st1" width="231.3" height="196"/>
</g>
<g id="Capa_1_1_">
</g>
<rect x="413.8" y="240.2" class="st2" width="43.7" height="4"/>
<path class="st2" d="M453.8,245.4h2.4l-0.5,2h-1.4L453.8,245.4z M454.5,272.4v-23h1l1,23H454.5z M452.5,248.5v23.9h-2l-1-23.9
	l0.8-3.1h1.4L452.5,248.5z M414.8,245.4h2.4l-0.5,2h-1.4L414.8,245.4z M414.5,272.4l1-23h1v23H414.5z M418.5,248.5l0.8-3.1h1.4
	l0.8,3.1l-1,23.9h-2L418.5,248.5L418.5,248.5z M437.8,245.4h2.4l-0.5,2h-1.4L437.8,245.4z M422.8,245.4h2.4l-0.5,2h-1.4L422.8,245.4
	z M422.5,272.4l1-23h1v23H422.5z M438.5,272.4v-23h1l1,23H438.5z M441.5,248.5l0.8-3.1h1.4l0.8,3.1v23.9h-2L441.5,248.5z
	 M445.8,245.4h2.4l-0.5,2h-1.4L445.8,245.4z M446.5,272.4v-23h1l1,23H446.5z M413,273.7h4.3l0,0h1.7l0,0h5.2l0,0h1.7l0,0h5.2l0,0
	h1.7l0,0h5.2l0,0h1.7l0,0h5.2l0,0h1.7l0,0h5.2l0,0h1.7l0,0h4.3v1.8H413V273.7z M460,278.5h-49.2v-1.7h0.8h47.5h0.8V278.5z
	 M426,248.5l0.9-3.1l1.4,0l0.7,3.1l-0.4,23.9l-2,0L426,248.5z M430.6,272.4l0.6-23l1,0l0.4,23L430.6,272.4z M430.4,245.4h2.4l-0.5,2
	h-1.4L430.4,245.4z M433.7,248.5l0.8-3.1h1.4l0.8,3.1v23.9h-2L433.7,248.5z"/>
<g>
	<polygon class="st2" points="459.3,275.9 459.3,272.2 458.5,272.2 457.6,250 458.9,244.8 459.8,244.7 459.8,240.2 461,240.2 
		461,236.4 435.6,223.9 410.2,236.4 410.2,240.2 411.4,240.2 411.5,244.8 412.6,244.8 413.3,249.1 412.7,272.2 411.9,272.2 
		411.9,275.9 409.3,275.9 409.3,279.4 461.8,279.6 461.8,275.9 	"/>
	<polygon class="st2" points="413.9,236.8 435.6,225.6 457.2,236.9 457.2,239 413.9,239 	"/>
	<path class="st2" d="M416.3,237.3h37.9l-19-9.3L416.3,237.3z M424.1,235.5l11.1-5.5l11.1,5.5H424.1z"/>
</g>
<rect x="446" y="241.4" class="st2" width="2" height="2"/>
<rect x="450" y="241.4" class="st2" width="2" height="2"/>
<rect x="454" y="241.4" class="st2" width="2" height="2"/>
<rect x="415" y="241.4" class="st2" width="2" height="2"/>
<rect x="419" y="241.4" class="st2" width="2" height="2"/>
<rect x="423" y="241.4" class="st2" width="2" height="2"/>
<rect x="427" y="241.4" class="st2" width="2" height="2"/>
<rect x="434.2" y="241.4" class="st2" width="2" height="2"/>
<rect x="438" y="241.4" class="st2" width="2" height="2"/>
<rect x="442" y="241.4" class="st2" width="2" height="2"/>
<rect x="430.5" y="241.4" class="st2" width="2" height="2"/>
</svg>
