<?xml version="1.0" encoding="utf-8"?>
<!-- Generator: Adobe Illustrator 24.1.1, SVG Export Plug-In . SVG Version: 6.00 Build 0)  -->
<svg version="1.1" id="Capa_1" xmlns="http://www.w3.org/2000/svg" xmlns:xlink="http://www.w3.org/1999/xlink" x="0px" y="0px"
	 viewBox="0 0 24 24" style="enable-background:new 0 0 24 24;" xml:space="preserve">
<style type="text/css">
	.st0{fill:none;}
	.st1{fill:none;stroke:#FFFFFF;stroke-width:0.75;stroke-miterlimit:10;}
	.st2{opacity:0.28;fill:none;stroke:#FFFFFF;stroke-miterlimit:10;}
</style>
<path class="st0" d="M0,0h24v24H0V0z"/>
<path class="st1" d="M3.6,8.8v6h4l5,5v-16l-5,5H3.6z M17.1,11.8c0-1.8-1-3.3-2.5-4v8C16.1,15.1,17.1,13.6,17.1,11.8z M14.6,3v2.1
	c2.9,0.9,5,3.5,5,6.7s-2.1,5.9-5,6.7v2.1c4-0.9,7-4.5,7-8.8S18.6,3.9,14.6,3z"/>
<path class="st2" d="M3.8,8.8v6h4l5,5v-16l-5,5H3.8z M17.3,11.8c0-1.8-1-3.3-2.5-4v8C16.3,15.1,17.3,13.6,17.3,11.8z M14.8,3v2.1
	c2.9,0.9,5,3.5,5,6.7s-2.1,5.9-5,6.7v2.1c4-0.9,7-4.5,7-8.8S18.8,3.9,14.8,3z"/>
</svg>
